<svg width="891" height="889" viewBox="0 0 891 889" fill="none" xmlns="http://www.w3.org/2000/svg">
<path style="mix-blend-mode:screen" opacity="0.54" d="M667.858 666.095C790.678 543.47 790.678 344.656 667.858 222.032C545.039 99.4069 345.908 99.4069 223.088 222.032C100.268 344.656 100.268 543.47 223.088 666.095C345.908 788.719 545.039 788.719 667.858 666.095Z" fill="url(#paint0_radial_137_3126)"/>
<path d="M447.155 636.892C553.818 636.892 640.286 550.561 640.286 444.067C640.286 337.573 553.818 251.243 447.155 251.243C340.491 251.243 254.023 337.573 254.023 444.067C254.023 550.561 340.491 636.892 447.155 636.892Z" fill="#005DC6"/>
<path opacity="0.63" d="M447.154 251.13C440.98 251.13 434.917 251.46 428.91 252.01C425.933 252.285 418.327 277.764 417.225 281.121C411.294 297.362 408.073 314.465 407.689 331.748C407.469 340.117 409.332 348.409 413.113 355.882C416.893 363.354 422.473 369.773 429.351 374.561C442.358 383.256 456.909 381.99 472.287 382.045C492.846 382.045 513.515 378.413 533.798 381.66C549.653 384.158 565.004 389.174 579.27 396.518C596.598 405.376 610.907 419.164 620.388 436.14C625.566 446.689 628.512 458.191 629.041 469.928C629.537 475.816 629.702 481.704 630.088 487.537C631.099 491.817 631.69 496.185 631.852 500.58C640.715 471.736 642.677 441.219 637.581 411.481C632.485 381.742 620.472 353.613 602.509 329.352C584.546 305.091 561.132 285.375 534.151 271.79C507.169 258.205 477.372 251.128 447.154 251.13V251.13Z" fill="#247EE2"/>
<path opacity="0.63" d="M258.268 484.235C266.849 524.763 288.29 561.448 319.407 588.848C350.523 616.248 389.659 632.901 431.006 636.337C441.147 637.217 423.951 579.106 421.195 573.823C404.329 541.961 374.951 519.344 352.904 491.278C345.933 483.481 341.916 473.493 341.55 463.048C342.818 419.795 421.966 441.366 419.211 395.692C418.208 385.812 413.359 376.721 405.707 370.378C390.439 357.116 370.432 351.833 351.857 345.119C343.074 342.265 334.714 338.249 326.999 333.178C324.739 331.582 304.181 314.358 306.771 311.606C285.272 334.297 269.624 361.868 261.174 391.942C252.724 422.016 251.727 453.69 258.268 484.235V484.235Z" fill="#247EE2"/>
<path opacity="0.47" d="M363.874 466.789C364.259 479.446 379.362 488.801 390.33 492.213C392.124 492.872 394.041 493.129 395.946 492.968C397.85 492.806 399.696 492.229 401.353 491.277C407.196 487.37 405.377 481.042 405.708 475.264C406.038 469.486 408.188 461.066 404.55 455.838C396.668 444.502 368.944 447.309 364.535 460.791C363.947 462.733 363.723 464.766 363.874 466.789V466.789Z" fill="#154B86"/>
<path opacity="0.63" d="M318.398 300.657C324.363 306.811 332.046 311.03 340.445 312.764C348.162 314.58 357.752 314.359 362.492 307.866C367.232 301.372 364.587 293.283 367.618 286.569C369.375 283.538 371.758 280.915 374.609 278.875C377.46 276.835 380.714 275.424 384.153 274.738C390.973 273.377 397.587 271.139 403.83 268.079C409.035 264.882 412.939 259.951 414.854 254.157C378.95 260.256 345.509 276.377 318.398 300.657V300.657Z" fill="#247EE2"/>
<path opacity="0.25" d="M550.224 409.891C546.518 409.927 542.826 410.332 539.201 411.102C527.846 413.633 511.201 423.429 521.177 437.461C525.392 442.408 531 445.975 537.272 447.697C543.535 449.375 549.313 452.505 554.137 456.832C562.074 465.251 560.862 478.844 555.791 489.464C550.72 500.085 542.618 508.56 537.327 518.85C532.035 529.141 530.106 542.678 537.327 551.868C541.119 555.804 546.052 558.452 551.431 559.439C556.811 560.426 562.365 559.703 567.311 557.371C577.127 552.467 585.304 544.82 590.846 535.359C603.248 517.607 609.869 496.47 609.806 474.826C609.645 464.119 607.028 453.591 602.155 444.051C597.281 434.511 590.283 426.214 581.696 419.797C572.44 413.414 561.473 409.962 550.224 409.891V409.891Z" fill="#154B86"/>
<path opacity="0.47" d="M346.896 508.34C338.393 502.063 330.561 494.926 323.526 487.044C320.018 483.087 317.425 478.408 315.93 473.34C314.434 468.271 314.073 462.936 314.872 457.713C318.4 441.699 335.266 433.225 349.155 424.695C355.455 421.1 360.862 416.135 364.974 410.167C366.973 407.145 368.134 403.648 368.337 400.033C368.54 396.417 367.779 392.812 366.132 389.586C361.226 381.441 350.478 379.625 341.384 376.819C331.601 373.661 322.548 368.583 314.758 361.883C306.969 355.182 300.598 346.996 296.022 337.803C294.67 334.866 293.493 331.853 292.495 328.778C273.858 353.627 261.513 382.606 256.512 413.245C251.511 443.885 254.002 475.277 263.772 504.748C273.543 534.22 290.304 560.896 312.628 582.505C334.951 604.114 362.176 620.016 391.982 628.855C395.423 623.176 398.005 617.019 399.643 610.586C401.456 600.833 400.87 590.786 397.934 581.31C390.053 552.254 370.155 527.601 346.896 508.34Z" fill="#368BEA"/>
<path opacity="0.47" d="M451.122 251.13C447.209 258.944 444.177 267.308 442.193 272.096C435.331 288.628 430.644 305.979 428.249 323.714C426.904 330.474 427.321 337.467 429.461 344.02C431.353 347.913 434.1 351.33 437.497 354.016C440.894 356.703 444.854 358.591 449.083 359.538C457.553 361.39 466.28 361.762 474.878 360.639C493.838 359.098 512.744 356.236 531.759 356.291C550.912 355.619 569.909 359.944 586.876 368.838C600.947 377.596 612.915 389.338 621.931 403.232C629.04 413.475 635.166 424.364 640.23 435.754C638.202 386.718 617.502 340.304 582.356 305.991C547.21 271.678 500.27 252.055 451.122 251.13V251.13Z" fill="#368BEA"/>
<path opacity="0.47" d="M556.342 446.1C569.184 456.336 572.05 475.321 568.082 491.28C564.94 504.212 557.995 516.539 558.105 529.801C558.003 531.267 558.308 532.734 558.987 534.038C561.027 537.34 566.042 536.679 569.57 535.084C587.152 527.049 596.081 506.578 596.633 487.263C597.363 472.347 593.053 457.618 584.396 445.44C580.545 440.055 575.618 435.524 569.926 432.134C564.235 428.743 557.902 426.566 551.326 425.739C545.814 425.464 542.011 427.17 543.389 433.499C544.767 439.827 551.932 442.634 556.342 446.1Z" fill="#368BEA"/>
<g opacity="0.32">
<path opacity="0.32" d="M529.608 470.368C528.892 483.575 515.719 487.262 510.979 497.883C508.664 503.386 510.979 511.476 518.364 510.76C536.829 508.999 552.427 485.667 545.923 468.167C545.363 466.228 544.125 464.554 542.433 463.45C540.741 462.346 538.709 461.886 536.705 462.153C534.702 462.419 532.861 463.395 531.518 464.903C530.175 466.411 529.419 468.351 529.388 470.368H529.608Z" fill="#368BEA"/>
</g>
<g opacity="0.32">
<path opacity="0.32" d="M509.656 523.58C497.255 534.586 497.751 555.663 506.129 568.98C513.239 580.426 530.491 593.248 543.002 582.297C544.405 580.807 545.186 578.839 545.186 576.794C545.186 574.749 544.405 572.781 543.002 571.291C537.16 564.798 527.845 564.798 523.27 555.883C518.696 546.968 520.68 535.852 518.751 525.947C518.477 525.046 517.976 524.23 517.296 523.578C516.616 522.926 515.779 522.459 514.867 522.221C513.955 521.984 512.996 521.984 512.084 522.222C511.172 522.46 510.336 522.928 509.656 523.58V523.58Z" fill="#368BEA"/>
</g>
<g opacity="0.32">
<path opacity="0.32" d="M480.884 540.583C479.177 541.98 478.009 543.925 477.577 546.086C476.144 553.13 476.585 565.347 484.743 568.098C485.769 568.407 486.87 568.364 487.87 567.975C488.869 567.586 489.708 566.874 490.254 565.952C493.782 560.449 491.026 554.451 490.254 548.728C489.703 544.821 489.813 538.217 483.695 539.428C482.68 539.584 481.716 539.98 480.884 540.583V540.583Z" fill="#368BEA"/>
</g>
<g opacity="0.47">
<path opacity="0.47" d="M385.311 292.015C382.054 295.075 379.756 299.013 378.697 303.352C376.934 316.889 375.335 321.897 360.949 323.878C360.229 324.056 359.551 324.377 358.958 324.823C358.365 325.269 357.868 325.83 357.497 326.473C357.127 327.115 356.89 327.826 356.801 328.562C356.712 329.298 356.774 330.045 356.981 330.756C361.17 342.588 378.587 336.259 385.807 330.756C393.028 325.253 394.736 315.843 394.351 306.598C394.185 301.866 393.855 284.146 385.311 292.015Z" fill="#154B86"/>
</g>
<path opacity="0.47" d="M397.659 466.735C396.904 462.372 394.546 458.447 391.045 455.729C388.692 454.395 385.955 453.898 383.283 454.318C380.61 454.737 378.158 456.05 376.329 458.04C359.022 475.76 403.502 494.305 397.659 466.735Z" fill="#368BEA"/>
<g opacity="0.47">
<path opacity="0.47" d="M352.628 406.588C343.369 402.296 331.188 406.973 323.251 412.586C315.314 418.199 305.723 427.609 308.92 437.9C309.471 439.183 310.425 440.253 311.638 440.948C312.851 441.642 314.257 441.925 315.644 441.752C323.251 440.596 328.046 432.672 334.164 428.545C344.802 421.336 347.117 423.042 353.841 416.824C354.652 416.182 355.285 415.344 355.68 414.389C356.075 413.434 356.218 412.394 356.097 411.368C355.975 410.342 355.593 409.364 354.986 408.527C354.378 407.691 353.567 407.023 352.628 406.588V406.588Z" fill="#154B86"/>
</g>
<g opacity="0.47">
<path opacity="0.47" d="M292.55 459.472C283.345 480.053 295.141 502.396 311.786 515.493C323.967 525.068 335.211 531.396 343.754 544.824C352.297 558.251 353.069 573.989 362.439 586.426C362.98 587.314 363.74 588.049 364.648 588.558C365.555 589.068 366.579 589.335 367.62 589.335C368.661 589.335 369.685 589.068 370.592 588.558C371.5 588.049 372.26 587.314 372.801 586.426C386.305 566.56 371.203 538.88 356.762 523.692C347.55 514.931 337.139 507.52 325.841 501.68C308.81 491.5 305.282 477.797 299.715 460.133C298.778 457.216 294.204 455.895 292.55 459.197V459.472Z" fill="#154B86"/>
</g>
<g opacity="0.47">
<path opacity="0.47" d="M319.225 552.36C321.32 556.927 323.745 561.44 325.674 566.062C328.099 571.565 328.595 577.068 333.942 580.755C335.586 581.708 337.5 582.09 339.385 581.841C341.27 581.592 343.019 580.727 344.359 579.38C350.256 572.776 347.886 563.971 343.036 557.368C338.757 551.787 333.043 547.47 326.501 544.876C325.46 544.331 324.272 544.133 323.111 544.31C321.949 544.486 320.875 545.029 320.044 545.859C319.213 546.688 318.67 547.761 318.493 548.921C318.316 550.08 318.514 551.266 319.06 552.305L319.225 552.36Z" fill="#154B86"/>
</g>
<g opacity="0.47">
<path opacity="0.47" d="M466.058 270.938C460.934 274.237 456.574 278.59 453.271 283.705C448.251 289.894 444.725 297.154 442.967 304.921C441.208 312.689 441.264 320.757 443.129 328.5C444.591 333.178 447.147 337.442 450.587 340.938C454.027 344.435 458.251 347.063 462.91 348.607C467.569 350.15 472.529 350.564 477.379 349.814C482.23 349.064 486.833 347.171 490.806 344.293C491.729 343.514 492.435 342.509 492.854 341.377C493.273 340.245 493.391 339.024 493.197 337.832C493.002 336.641 492.502 335.52 491.745 334.579C490.988 333.638 490 332.908 488.876 332.462C485.417 330.897 481.65 330.126 477.853 330.206C474.118 330.25 470.441 329.28 467.215 327.399C465.549 326.076 464.192 324.406 463.24 322.505C462.288 320.604 461.763 318.518 461.704 316.393C460.601 303.351 468.207 290.144 474.932 279.578C475.457 278.535 475.694 277.371 475.617 276.206C475.541 275.041 475.153 273.917 474.496 272.952C473.838 271.987 472.934 271.214 471.877 270.715C470.819 270.216 469.648 270.008 468.483 270.113C467.639 270.271 466.823 270.549 466.058 270.938V270.938Z" fill="#005DC6"/>
</g>
<g opacity="0.47">
<path opacity="0.47" d="M487.995 291.739C486.071 292.16 484.255 292.974 482.662 294.129C481.068 295.285 479.731 296.757 478.735 298.453C477.43 301.016 476.961 303.924 477.396 306.766C477.831 309.609 479.148 312.244 481.16 314.302C486.231 318.649 496.318 316.723 496.814 309.129C496.814 310.009 496.483 310.89 496.262 311.77C497.53 306.157 497.585 289.978 487.995 291.739Z" fill="#005DC6"/>
</g>
<g style="mix-blend-mode:screen" opacity="0.38">
<g style="mix-blend-mode:screen" opacity="0.38">
<path d="M511.312 472.241C525.808 472.241 525.808 449.844 511.312 449.844C496.816 449.844 496.871 472.241 511.312 472.241Z" fill="#59A7FF"/>
</g>
<g style="mix-blend-mode:screen" opacity="0.38">
<path d="M488.878 489.411C490.559 489.411 492.171 488.745 493.36 487.558C494.548 486.371 495.216 484.761 495.216 483.083C495.216 481.405 494.548 479.795 493.36 478.608C492.171 477.421 490.559 476.755 488.878 476.755C487.197 476.755 485.584 477.421 484.396 478.608C483.207 479.795 482.539 481.405 482.539 483.083C482.539 484.761 483.207 486.371 484.396 487.558C485.584 488.745 487.197 489.411 488.878 489.411Z" fill="#59A7FF"/>
</g>
<g style="mix-blend-mode:screen" opacity="0.38">
<path d="M477.581 517.86C479.068 517.717 480.449 517.027 481.453 515.923C482.458 514.819 483.014 513.381 483.014 511.889C483.014 510.398 482.458 508.96 481.453 507.856C480.449 506.752 479.068 506.061 477.581 505.919C476.094 506.061 474.714 506.752 473.71 507.856C472.705 508.96 472.148 510.398 472.148 511.889C472.148 513.381 472.705 514.819 473.71 515.923C474.714 517.027 476.094 517.717 477.581 517.86V517.86Z" fill="#59A7FF"/>
</g>
<g style="mix-blend-mode:screen" opacity="0.38">
<path d="M453.217 532.55C453.948 532.55 454.649 532.261 455.165 531.745C455.682 531.229 455.973 530.529 455.973 529.799C455.973 529.069 455.682 528.369 455.165 527.853C454.649 527.337 453.948 527.047 453.217 527.047C452.486 527.047 451.785 527.337 451.268 527.853C450.751 528.369 450.461 529.069 450.461 529.799C450.461 530.529 450.751 531.229 451.268 531.745C451.785 532.261 452.486 532.55 453.217 532.55Z" fill="#59A7FF"/>
</g>
<g style="mix-blend-mode:screen" opacity="0.38">
<path d="M509.217 611.025C511.41 611.025 513.512 610.156 515.063 608.608C516.613 607.06 517.484 604.96 517.484 602.771C517.484 600.581 516.613 598.482 515.063 596.934C513.512 595.386 511.41 594.516 509.217 594.516C507.024 594.516 504.921 595.386 503.371 596.934C501.82 598.482 500.949 600.581 500.949 602.771C500.949 604.96 501.82 607.06 503.371 608.608C504.921 610.156 507.024 611.025 509.217 611.025Z" fill="#59A7FF"/>
</g>
<g style="mix-blend-mode:screen" opacity="0.38">
<path d="M531.32 610.698C532.782 610.698 534.184 610.118 535.218 609.086C536.251 608.054 536.832 606.654 536.832 605.195C536.832 603.736 536.251 602.336 535.218 601.304C534.184 600.272 532.782 599.692 531.32 599.692C529.859 599.692 528.457 600.272 527.423 601.304C526.389 602.336 525.809 603.736 525.809 605.195C525.809 606.654 526.389 608.054 527.423 609.086C528.457 610.118 529.859 610.698 531.32 610.698Z" fill="#59A7FF"/>
</g>
<g style="mix-blend-mode:screen" opacity="0.38">
<path d="M484.357 621.261C484.848 621.18 485.293 620.929 485.615 620.551C485.937 620.173 486.113 619.693 486.113 619.197C486.113 618.701 485.937 618.221 485.615 617.843C485.293 617.465 484.848 617.214 484.357 617.133C483.867 617.214 483.421 617.465 483.1 617.843C482.778 618.221 482.602 618.701 482.602 619.197C482.602 619.693 482.778 620.173 483.1 620.551C483.421 620.929 483.867 621.18 484.357 621.261V621.261Z" fill="#59A7FF"/>
</g>
<g style="mix-blend-mode:screen" opacity="0.38">
<path d="M532.423 400.593C533.388 400.478 534.278 400.015 534.923 399.29C535.569 398.564 535.925 397.628 535.925 396.658C535.925 395.688 535.569 394.751 534.923 394.026C534.278 393.301 533.388 392.837 532.423 392.723C531.459 392.837 530.569 393.301 529.924 394.026C529.278 394.751 528.922 395.688 528.922 396.658C528.922 397.628 529.278 398.564 529.924 399.29C530.569 400.015 531.459 400.478 532.423 400.593Z" fill="#59A7FF"/>
</g>
<g style="mix-blend-mode:screen" opacity="0.38">
<path d="M550.556 401.91C551.799 401.91 552.99 401.418 553.869 400.54C554.747 399.663 555.241 398.473 555.241 397.233C555.241 395.992 554.747 394.803 553.869 393.925C552.99 393.048 551.799 392.555 550.556 392.555C549.314 392.555 548.122 393.048 547.243 393.925C546.365 394.803 545.871 395.992 545.871 397.233C545.871 398.473 546.365 399.663 547.243 400.54C548.122 401.418 549.314 401.91 550.556 401.91V401.91Z" fill="#59A7FF"/>
</g>
<g style="mix-blend-mode:screen" opacity="0.38">
<path d="M419.264 322.999C420.404 322.999 421.498 322.547 422.304 321.742C423.11 320.937 423.563 319.845 423.563 318.707C423.563 317.569 423.11 316.477 422.304 315.672C421.498 314.867 420.404 314.415 419.264 314.415C418.124 314.415 417.03 314.867 416.224 315.672C415.418 316.477 414.965 317.569 414.965 318.707C414.965 319.845 415.418 320.937 416.224 321.742C417.03 322.547 418.124 322.999 419.264 322.999Z" fill="#59A7FF"/>
</g>
<g style="mix-blend-mode:screen" opacity="0.38">
<path d="M416.455 339.781C417.697 339.781 418.889 339.289 419.767 338.411C420.646 337.534 421.139 336.344 421.139 335.104C421.139 333.863 420.646 332.674 419.767 331.796C418.889 330.919 417.697 330.426 416.455 330.426C415.212 330.426 414.02 330.919 413.142 331.796C412.263 332.674 411.77 333.863 411.77 335.104C411.77 336.344 412.263 337.534 413.142 338.411C414.02 339.289 415.212 339.781 416.455 339.781V339.781Z" fill="#59A7FF"/>
</g>
<g style="mix-blend-mode:screen" opacity="0.38">
<path d="M422.13 359.866C423.759 359.838 425.312 359.18 426.464 358.03C427.615 356.88 428.275 355.329 428.303 353.703C428.261 352.082 427.598 350.538 426.449 349.391C425.3 348.244 423.754 347.581 422.13 347.54C420.493 347.54 418.923 348.189 417.765 349.345C416.607 350.501 415.957 352.068 415.957 353.703C415.957 355.338 416.607 356.905 417.765 358.061C418.923 359.217 420.493 359.866 422.13 359.866Z" fill="#59A7FF"/>
</g>
<g style="mix-blend-mode:screen" opacity="0.38">
<path d="M439.22 358.66H438.944C437.916 357.668 436.543 357.114 435.113 357.114C433.684 357.114 432.31 357.668 431.283 358.66V358.66C430.477 359.47 429.93 360.499 429.71 361.619C429.49 362.739 429.607 363.899 430.046 364.952C430.485 366.006 431.227 366.906 432.178 367.539C433.129 368.172 434.246 368.51 435.389 368.51C436.532 368.51 437.649 368.172 438.6 367.539C439.551 366.906 440.293 366.006 440.732 364.952C441.171 363.899 441.288 362.739 441.068 361.619C440.848 360.499 440.301 359.47 439.495 358.66H439.22Z" fill="#59A7FF"/>
</g>
</g>
<path style="mix-blend-mode:multiply" opacity="0.51" d="M447.155 636.892C553.818 636.892 640.286 550.561 640.286 444.067C640.286 337.573 553.818 251.243 447.155 251.243C340.491 251.243 254.023 337.573 254.023 444.067C254.023 550.561 340.491 636.892 447.155 636.892Z" fill="url(#paint1_linear_137_3126)"/>
<g style="mix-blend-mode:multiply" opacity="0.07">
<path d="M447.155 636.891C473.918 636.536 500.313 630.625 524.664 619.533C549.014 608.441 570.786 592.412 588.595 572.464C606.405 552.517 619.862 529.087 628.111 503.666C636.36 478.245 639.221 451.388 636.511 424.803C633.801 398.218 625.58 372.487 612.37 349.246C599.161 326.005 581.252 305.763 559.783 289.807C538.313 273.85 513.753 262.529 487.664 256.562C461.575 250.596 434.528 250.115 408.243 255.15C443.234 259.024 476.63 271.856 505.194 292.405C518.009 301.597 529.619 312.356 539.753 324.432C556.288 344.133 569.13 367.851 571.39 393.44C573.65 419.028 563.894 446.488 542.839 461.291C516.603 479.726 475.982 477.8 459.171 505.315C448.974 521.824 451.896 543.836 442.636 561.335C431.612 582.632 405.597 591.162 382.007 595.344C365.548 598.404 348.797 599.604 332.07 598.921C365.322 623.647 405.695 636.967 447.155 636.891V636.891Z" fill="#005DC6"/>
</g>
<g style="mix-blend-mode:multiply" opacity="0.21">
<path d="M447.155 636.889C494.919 637.377 541.166 620.155 576.943 588.557C612.721 556.959 635.485 513.232 640.828 465.84C646.172 418.449 633.715 370.764 605.869 332.015C578.023 293.266 536.769 266.209 490.091 256.083C491.511 257.207 493.067 258.15 494.721 258.889C532.97 277.359 564.339 307.502 584.287 344.956C595.381 365.576 602.522 388.084 605.342 411.322C607.507 423.713 606.249 436.46 601.704 448.192C590.35 472.79 559.594 480.109 536.721 494.692C532.227 497.321 528.443 501.004 525.697 505.423C520.792 514.172 523.548 525.013 522.555 534.974C520.847 552.803 507.123 567.221 492.131 577.071C445.171 607.998 381.896 605.907 330.692 582.574C317.887 576.654 305.638 569.6 294.094 561.498C312.105 584.945 335.278 603.94 361.819 617.013C388.361 630.086 417.559 636.887 447.155 636.889V636.889Z" fill="#005DC6"/>
</g>
<g style="mix-blend-mode:overlay" opacity="0.28">
<path d="M447.154 251.517C396.854 251.403 348.513 270.975 312.501 306.036C276.488 341.096 255.672 388.852 254.519 439.058C253.584 480.443 265.819 521.057 289.463 555.061C282.628 526.721 276.786 497.5 280.699 468.664C284.613 439.829 300.211 411.048 326.447 398.336C359.076 382.433 398.816 394.539 433.815 384.744C453.658 379.241 472.398 366.529 493.012 369.446C498.459 370.724 503.982 371.661 509.547 372.252C512.379 372.491 515.218 371.867 517.688 370.462C520.158 369.057 522.143 366.937 523.381 364.383C526.027 356.844 518.751 349.36 518.531 341.38C518.531 329.769 532.09 323.386 543.664 322.175C566.296 319.926 589.004 325.628 607.876 338.299C590.946 312.983 568.325 291.968 541.817 276.93C515.31 261.891 485.649 253.245 455.201 251.682C452.555 251.572 449.855 251.517 447.154 251.517Z" fill="#70B2FF"/>
</g>
<g style="mix-blend-mode:screen" opacity="0.58">
<path d="M447.156 251.13C409.634 251.018 372.894 261.832 341.435 282.25C309.976 302.667 285.163 331.801 270.036 366.084C254.909 400.367 250.124 438.31 256.267 475.266C262.41 512.223 279.214 546.589 304.622 574.155C278.082 540.916 263.3 499.844 262.583 457.341C261.865 414.838 275.251 373.292 300.654 339.178C310.66 355.517 326.757 367.218 345.404 371.707C354.637 373.93 364.218 374.316 373.601 372.841C382.983 371.367 391.982 368.063 400.085 363.116C408.189 358.169 415.236 351.678 420.827 344.012C426.417 336.346 430.44 327.655 432.667 318.437C434.893 309.218 435.279 299.652 433.802 290.285C432.326 280.918 429.016 271.932 424.062 263.842C455.809 258.557 488.377 261.286 518.798 271.782C549.22 282.278 576.527 300.207 598.233 323.935C580.165 301.226 557.195 282.885 531.035 270.279C504.876 257.672 476.203 251.127 447.156 251.13V251.13Z" fill="#005DC6"/>
</g>
<path style="mix-blend-mode:screen" opacity="0.32" d="M622.482 363.169C623.569 408 609.068 451.824 581.447 487.187C553.825 522.55 514.787 547.269 470.973 557.14C427.158 567.011 381.271 561.424 341.116 541.331C300.961 521.237 269.016 487.877 250.715 446.924C251.371 475.661 258.412 503.894 271.329 529.583C284.246 555.272 302.718 577.776 325.408 595.469C348.099 613.162 374.442 625.602 402.535 631.89C430.628 638.178 459.769 638.158 487.854 631.831C515.938 625.504 542.264 613.028 564.93 595.304C587.596 577.58 606.036 555.051 618.918 529.344C631.8 503.637 638.802 475.395 639.418 446.656C640.034 417.918 634.25 389.402 622.482 363.169V363.169Z" fill="url(#paint2_linear_137_3126)"/>
<path style="mix-blend-mode:screen" opacity="0.32" d="M524.265 265.384C554.987 298.017 573.46 340.253 576.553 384.932C579.645 429.611 567.167 473.983 541.234 510.525C515.3 547.067 477.507 573.531 434.262 585.429C391.017 597.327 344.982 593.928 303.961 575.807C323.707 596.688 347.848 612.934 374.644 623.374C401.439 633.813 430.221 638.186 458.913 636.177C487.606 634.168 515.495 625.827 540.568 611.755C565.642 597.683 587.275 578.232 603.909 554.804C620.542 531.375 631.762 504.553 636.757 476.272C641.753 447.991 640.4 418.956 632.798 391.26C625.195 363.564 611.531 337.897 592.792 316.111C574.052 294.325 550.704 276.962 524.431 265.274L524.265 265.384Z" fill="url(#paint3_linear_137_3126)"/>
<path style="mix-blend-mode:overlay" opacity="0.43" d="M398.211 434.327C444.694 434.327 482.375 396.705 482.375 350.297C482.375 303.888 444.694 266.266 398.211 266.266C351.729 266.266 314.047 303.888 314.047 350.297C314.047 396.705 351.729 434.327 398.211 434.327Z" fill="url(#paint4_radial_137_3126)"/>
<path opacity="0.78" d="M268.795 512.745C267.747 510.709 266.865 508.563 265.928 506.472C186.118 555.723 151.56 587.2 147.536 601.233C147.274 602.057 147.274 602.941 147.536 603.764V604.26C147.812 604.865 149.135 605.36 149.686 605.525C159.717 608.827 211.528 609.653 455.918 481.488C603.027 404.447 703.34 330.266 730.513 299.89C731.151 299.046 731.532 298.037 731.611 296.983C731.69 295.928 731.463 294.874 730.957 293.945C730.451 293.016 729.688 292.253 728.759 291.746C727.83 291.238 726.774 291.009 725.718 291.085C705.49 294.332 665.695 306.494 608.208 330.211C609.034 331.697 609.971 333.183 610.798 334.669C658.254 315.408 689.34 307.154 692.923 313.647C700.088 327.24 593.712 397.238 455.036 470.042C316.361 542.846 198.465 590.722 191.3 577.13C187.386 569.701 217.701 545.268 268.795 512.745Z" fill="url(#paint5_linear_137_3126)"/>
<defs>
<radialGradient id="paint0_radial_137_3126" cx="0" cy="0" r="1" gradientUnits="userSpaceOnUse" gradientTransform="translate(445.454 444.044) scale(314.5 314)">
<stop stop-color="#ACFFFB"/>
<stop offset="0.17" stop-color="#7FBDBA"/>
<stop offset="0.33" stop-color="#588381"/>
<stop offset="0.49" stop-color="#395453"/>
<stop offset="0.64" stop-color="#20302F"/>
<stop offset="0.78" stop-color="#0E1515"/>
<stop offset="0.9" stop-color="#040605"/>
<stop offset="1"/>
</radialGradient>
<linearGradient id="paint1_linear_137_3126" x1="310.574" y1="307.703" x2="583.301" y2="580.865" gradientUnits="userSpaceOnUse">
<stop stop-color="white"/>
<stop offset="0.09" stop-color="#EBEBF6"/>
<stop offset="0.54" stop-color="#8B8FCE"/>
<stop offset="0.85" stop-color="#4F55B4"/>
<stop offset="1" stop-color="#383EAA"/>
</linearGradient>
<linearGradient id="paint2_linear_137_3126" x1="426.731" y1="366.185" x2="490.457" y2="632.206" gradientUnits="userSpaceOnUse">
<stop offset="0.24" stop-color="white"/>
<stop offset="0.92" stop-color="white"/>
<stop offset="1" stop-color="white"/>
</linearGradient>
<linearGradient id="paint3_linear_137_3126" x1="380.974" y1="395.121" x2="605.359" y2="549.842" gradientUnits="userSpaceOnUse">
<stop offset="0.24" stop-color="white"/>
<stop offset="0.39" stop-color="#FCFFFF"/>
<stop offset="0.5" stop-color="#F2FFFF"/>
<stop offset="0.6" stop-color="#E2FEFF"/>
<stop offset="0.7" stop-color="#CBFDFF"/>
<stop offset="0.78" stop-color="#AEFCFF"/>
<stop offset="0.87" stop-color="#8AFBFF"/>
<stop offset="0.95" stop-color="#5FF9FF"/>
<stop offset="1" stop-color="#40F8FF"/>
</linearGradient>
<radialGradient id="paint4_radial_137_3126" cx="0" cy="0" r="1" gradientUnits="userSpaceOnUse" gradientTransform="translate(398.211 350.297) scale(84.1643 84.0305)">
<stop stop-color="#ECECEC"/>
<stop offset="0.47" stop-color="#F1F1F1"/>
<stop offset="1" stop-color="white"/>
</radialGradient>
<linearGradient id="paint5_linear_137_3126" x1="143.316" y1="595.549" x2="737.432" y2="306.345" gradientUnits="userSpaceOnUse">
<stop stop-color="#77EDF6"/>
<stop offset="0.16" stop-color="#6BE1F0"/>
<stop offset="0.44" stop-color="#4CC0E1"/>
<stop offset="0.82" stop-color="#1A8CC8"/>
<stop offset="0.99" stop-color="#0071BB"/>
</linearGradient>
</defs>
</svg>
