<svg width="599" height="601" viewBox="0 0 599 601" fill="none" xmlns="http://www.w3.org/2000/svg">
<path style="mix-blend-mode:screen" opacity="0.54" d="M299.477 600.953C464.874 600.953 598.955 466.425 598.955 300.477C598.955 134.528 464.874 0 299.477 0C134.081 0 0 134.528 0 300.477C0 466.425 134.081 600.953 299.477 600.953Z" fill="url(#paint0_radial_3_6135)"/>
<path style="mix-blend-mode:multiply" opacity="0.68" d="M299.637 485.261C401.331 485.261 483.77 402.53 483.77 300.477C483.77 198.424 401.331 115.693 299.637 115.693C197.943 115.693 115.504 198.424 115.504 300.477C115.504 402.53 197.943 485.261 299.637 485.261Z" fill="url(#paint1_linear_3_6135)"/>
<path d="M299.635 485.26C401.329 485.26 483.768 402.529 483.768 300.476C483.768 198.423 401.329 115.692 299.635 115.692C197.941 115.692 115.502 198.423 115.502 300.476C115.502 402.529 197.941 485.26 299.635 485.26Z" fill="#DDC3A3"/>
<g opacity="0.89">
<path opacity="0.89" d="M467.168 284.957C466.878 281.218 465.979 277.552 464.506 274.106C464.124 272.335 463.335 270.678 462.202 269.267C461.069 267.857 459.624 266.731 457.982 265.98C456.39 265.224 454.6 264.999 452.871 265.339C451.143 265.678 449.569 266.565 448.379 267.868C443.743 272.703 441.209 279.189 441.333 285.9C439.297 294.917 440.445 309.437 452.189 310.276C464.924 311.167 467.898 294.497 467.168 284.957Z" fill="#D8B58C"/>
<path opacity="0.89" d="M420.349 226.456L419.097 226.981C416.869 227.192 414.706 227.848 412.734 228.91C410.763 229.973 409.022 231.42 407.614 233.166C406.301 235.07 405.739 237.395 406.038 239.692C406.337 241.988 407.476 244.09 409.232 245.59C411.082 247.388 413.528 248.436 416.1 248.532C418.672 248.629 421.189 247.768 423.167 246.114L423.585 245.747C426.613 243.413 428.839 240.188 429.952 236.521C430.451 235.158 430.559 233.681 430.263 232.259C429.967 230.837 429.279 229.527 428.279 228.478C427.278 227.429 426.004 226.684 424.602 226.326C423.2 225.969 421.727 226.014 420.349 226.456Z" fill="#D8B58C"/>
<path opacity="0.89" d="M277.711 325.01C271.086 328.784 266.169 334.982 263.984 342.309C259.183 359.713 282.773 360.08 293.003 354.838C304.903 348.81 315.811 327.998 299.579 319.821C293.003 316.466 285.435 319.192 279.224 324.224L277.711 325.01Z" fill="#D8B58C"/>
<path opacity="0.89" d="M323.589 346.764C325.42 345.996 326.983 344.699 328.079 343.038C329.175 341.377 329.756 339.426 329.748 337.433C330.292 335.711 330.2 333.85 329.487 332.191C329.328 331.391 329.065 330.615 328.704 329.885C328.962 329.035 328.982 328.13 328.761 327.27C328.54 326.41 328.087 325.627 327.451 325.01C326.966 324.518 326.389 324.128 325.753 323.862C325.117 323.596 324.434 323.459 323.745 323.459C323.056 323.459 322.374 323.596 321.738 323.862C321.102 324.128 320.525 324.518 320.04 325.01C319.209 326.1 318.442 327.237 317.743 328.417C316.698 329.358 315.903 330.546 315.429 331.873C314.956 333.2 314.818 334.624 315.029 336.018C315.029 336.804 314.768 337.591 314.716 338.377C314.351 343.567 317.848 348.704 323.589 346.764Z" fill="#D8B58C"/>
<path opacity="0.89" d="M176.925 307.028C188.355 297.487 189.66 272.744 184.18 259.849C181.831 254.345 177.082 248.106 170.401 248.84C168.637 249.197 166.964 249.911 165.483 250.939C164.003 251.966 162.746 253.285 161.789 254.816C151.351 257.123 147.019 281.656 148.011 289.519C149.524 302.729 163.721 318.036 176.925 307.028Z" fill="#D8B58C"/>
<path opacity="0.89" d="M268.106 204.7C269.762 205.071 271.483 205.031 273.12 204.583C274.757 204.136 276.261 203.294 277.501 202.132C279.322 200.791 280.747 198.98 281.624 196.89C284.025 190.914 284.442 180.22 277.135 177.494C262.678 172.252 253.388 201.45 268.106 204.7Z" fill="#D8B58C"/>
<path opacity="0.89" d="M184.706 341.783C177.034 336.121 169.048 335.964 164.351 343.251C159.132 345.872 159.132 360.13 159.132 364.219C159.251 369.722 161.335 375 165.005 379.089C168.674 383.179 173.684 385.808 179.121 386.498C180.51 386.629 181.908 386.629 183.297 386.498C185.153 387.107 187.151 387.127 189.019 386.555C190.886 385.983 192.533 384.846 193.735 383.3C194.436 382.321 194.95 381.218 195.249 380.05C197.59 377.066 198.843 373.365 198.798 369.566C198.596 364.185 197.231 358.913 194.797 354.116C192.364 349.318 188.921 345.11 184.706 341.783Z" fill="#D8B58C"/>
<path opacity="0.89" d="M313.147 253.243C316.035 258.104 320.412 261.895 325.624 264.049C330.836 266.204 336.603 266.606 342.061 265.194C348.624 263.265 354.367 259.21 358.397 253.662C361.82 249.618 364.41 244.932 366.017 239.875C367.306 235.961 367.658 231.797 367.043 227.72C366.429 223.644 364.866 219.771 362.481 216.415C360.096 213.059 356.957 210.316 353.318 208.408C349.679 206.5 345.644 205.482 341.539 205.435C336.368 205.453 331.286 206.787 326.769 209.314C323.167 211.227 320.014 213.891 317.521 217.128C315.027 220.364 313.251 224.099 312.312 228.08C311.975 229.58 311.766 231.106 311.685 232.641C310.409 235.972 309.878 239.545 310.131 243.105C310.383 246.666 311.413 250.127 313.147 253.243Z" fill="#D8B58C"/>
<path opacity="0.89" d="M386.213 350.382C384.4 350.382 382.661 351.106 381.379 352.394C380.096 353.682 379.376 355.428 379.376 357.249C379.376 359.071 380.096 360.817 381.379 362.105C382.661 363.393 384.4 364.117 386.213 364.117C388.026 364.117 389.765 363.393 391.048 362.105C392.33 360.817 393.05 359.071 393.05 357.249C393.05 355.428 392.33 353.682 391.048 352.394C389.765 351.106 388.026 350.382 386.213 350.382Z" fill="#D8B58C"/>
<path opacity="0.89" d="M344.462 418.788C338.501 413.259 330.655 410.238 322.542 410.348C320.331 410.45 318.132 410.73 315.966 411.187C312.617 412.3 309.527 414.083 306.884 416.429C304.383 418.786 302.573 421.787 301.653 425.105C300.733 428.424 300.737 431.932 301.665 435.248C302.521 438.487 304.212 441.442 306.567 443.816C308.921 446.191 311.857 447.9 315.078 448.773H316.174C317.573 449.387 319.023 449.878 320.506 450.241C325.568 451.289 330.789 451.289 335.851 450.241C338.999 449.356 341.866 447.668 344.173 445.341C346.48 443.014 348.147 440.127 349.014 436.961C349.881 433.795 349.918 430.457 349.12 427.273C348.322 424.088 346.718 421.165 344.462 418.788Z" fill="#D8B58C"/>
<path opacity="0.89" d="M290.55 432.416C290.404 431.768 290.194 431.135 289.923 430.529V430.214L289.454 429.848C289.186 429.253 288.853 428.691 288.462 428.17L287.94 427.384L287.523 426.912C285.735 424.79 283.447 423.151 280.867 422.144C278.287 421.137 275.498 420.794 272.752 421.146C270.513 421.494 268.375 422.319 266.478 423.565C264.582 424.81 262.973 426.448 261.758 428.368C260.542 430.289 259.749 432.447 259.431 434.7C259.113 436.953 259.277 439.248 259.913 441.433C260.482 443.409 261.461 445.243 262.786 446.812C264.112 448.382 265.753 449.651 267.602 450.538C269.45 451.424 271.465 451.907 273.514 451.955C275.562 452.003 277.597 451.615 279.485 450.816C280.321 450.377 281.109 449.85 281.834 449.243C284.329 448.28 286.513 446.649 288.149 444.525C289.417 442.904 290.291 441.007 290.698 438.987C291.106 436.966 291.037 434.877 290.497 432.888L290.55 432.416Z" fill="#D8B58C"/>
<path opacity="0.89" d="M291.596 402.225C289.911 402.225 288.264 402.727 286.864 403.668C285.464 404.61 284.373 405.947 283.731 407.512C283.089 409.076 282.923 410.797 283.256 412.456C283.588 414.114 284.404 415.637 285.599 416.83C286.794 418.023 288.314 418.832 289.968 419.156C291.622 419.48 293.334 419.303 294.888 418.648C296.441 417.994 297.766 416.89 298.695 415.478C299.623 414.066 300.113 412.409 300.103 410.717C300.076 408.464 299.169 406.312 297.578 404.724C295.987 403.136 293.839 402.238 291.596 402.225Z" fill="#D8B58C"/>
<path opacity="0.89" d="M426.511 342.988C424.122 343.442 421.967 344.72 420.416 346.601C418.865 348.481 418.017 350.846 418.017 353.288C418.017 355.73 418.865 358.095 420.416 359.976C421.967 361.856 424.122 363.134 426.511 363.589C439.716 363.589 439.768 342.988 426.511 342.988Z" fill="#D8B58C"/>
<path opacity="0.89" d="M422.751 370.562C420.163 370.562 417.68 371.595 415.85 373.433C414.02 375.272 412.991 377.765 412.991 380.365C412.991 382.965 414.02 385.458 415.85 387.296C417.68 389.135 420.163 390.168 422.751 390.168C425.34 390.168 427.822 389.135 429.652 387.296C431.483 385.458 432.511 382.965 432.511 380.365C432.511 377.765 431.483 375.272 429.652 373.433C427.822 371.595 425.34 370.562 422.751 370.562Z" fill="#D8B58C"/>
<path opacity="0.89" d="M390.286 392.265C388.901 392.265 387.574 392.817 386.595 393.8C385.616 394.783 385.066 396.117 385.066 397.507C385.066 398.897 385.616 400.231 386.595 401.214C387.574 402.197 388.901 402.749 390.286 402.749C391.67 402.749 392.997 402.197 393.976 401.214C394.955 400.231 395.505 398.897 395.505 397.507C395.505 396.117 394.955 394.783 393.976 393.8C392.997 392.817 391.67 392.265 390.286 392.265Z" fill="#D8B58C"/>
<path opacity="0.89" d="M407.408 341.784C405.761 341.784 404.181 342.441 403.017 343.611C401.852 344.781 401.198 346.368 401.198 348.022C401.198 349.677 401.852 351.263 403.017 352.433C404.181 353.603 405.761 354.26 407.408 354.26C409.056 354.26 410.635 353.603 411.8 352.433C412.965 351.263 413.619 349.677 413.619 348.022C413.619 346.368 412.965 344.781 411.8 343.611C410.635 342.441 409.056 341.784 407.408 341.784Z" fill="#D8B58C"/>
<path opacity="0.89" d="M403.44 366.21C401.953 366.21 400.5 366.652 399.264 367.482C398.028 368.311 397.065 369.49 396.496 370.87C395.927 372.249 395.779 373.767 396.068 375.231C396.358 376.695 397.074 378.04 398.125 379.096C399.176 380.152 400.516 380.871 401.973 381.162C403.431 381.453 404.943 381.304 406.316 380.732C407.689 380.161 408.863 379.193 409.689 377.952C410.515 376.711 410.955 375.251 410.955 373.758C410.928 371.765 410.128 369.86 408.724 368.451C407.321 367.041 405.425 366.237 403.44 366.21Z" fill="#D8B58C"/>
<path opacity="0.89" d="M360.121 371.872C358.314 371.872 356.548 372.41 355.046 373.418C353.544 374.426 352.374 375.859 351.682 377.535C350.991 379.211 350.81 381.056 351.163 382.835C351.515 384.615 352.385 386.25 353.662 387.533C354.94 388.815 356.567 389.689 358.339 390.043C360.111 390.397 361.947 390.215 363.616 389.521C365.285 388.827 366.711 387.651 367.715 386.142C368.719 384.634 369.254 382.86 369.254 381.046C369.227 378.621 368.256 376.304 366.549 374.589C364.842 372.875 362.535 371.899 360.121 371.872Z" fill="#D8B58C"/>
<path opacity="0.89" d="M405.426 279.505C399.563 279.591 393.958 281.937 389.768 286.057C387.711 288.122 386.078 290.573 384.964 293.271C383.85 295.97 383.277 298.862 383.277 301.784C383.277 304.705 383.85 307.597 384.964 310.296C386.078 312.994 387.711 315.445 389.768 317.51C393.933 321.658 399.561 323.986 405.426 323.986C411.291 323.986 416.919 321.658 421.084 317.51C425.195 313.308 427.532 307.674 427.608 301.784C427.587 295.881 425.242 290.227 421.084 286.057C416.894 281.937 411.289 279.591 405.426 279.505Z" fill="#D8B58C"/>
<path opacity="0.89" d="M369.257 294.812C370.724 294.812 372.131 294.227 373.169 293.185C374.206 292.143 374.789 290.73 374.789 289.256C374.789 287.782 374.206 286.369 373.169 285.327C372.131 284.285 370.724 283.699 369.257 283.699C367.79 283.699 366.382 284.285 365.345 285.327C364.307 286.369 363.725 287.782 363.725 289.256C363.725 290.73 364.307 292.143 365.345 293.185C366.382 294.227 367.79 294.812 369.257 294.812Z" fill="#D8B58C"/>
<path opacity="0.89" d="M366.593 304.041C350.048 304.041 349.996 329.937 366.593 329.937C383.19 329.937 383.242 304.041 366.593 304.041Z" fill="#D8B58C"/>
<path opacity="0.89" d="M405.424 210.943C407.421 211.962 409.692 212.308 411.901 211.931C414.11 211.553 416.139 210.472 417.689 208.846C418.861 207.701 419.91 206.436 420.82 205.072C421.201 204.526 421.532 203.947 421.812 203.342C422.125 202.661 422.386 201.979 422.647 201.245C422.659 201.106 422.659 200.966 422.647 200.826C423.1 199.886 423.335 198.856 423.335 197.812C423.335 196.768 423.1 195.737 422.647 194.798C422.107 193.504 421.201 192.397 420.041 191.615C418.882 190.832 417.52 190.408 416.123 190.394C414.453 190.325 412.789 190.633 411.254 191.295C409.718 191.957 408.35 192.957 407.25 194.221C406.885 194.693 406.52 195.165 406.154 195.741L404.484 196.999C403.395 197.761 402.501 198.771 401.875 199.946C401.249 201.121 400.909 202.429 400.883 203.762C400.949 205.253 401.403 206.7 402.2 207.96C402.997 209.22 404.108 210.249 405.424 210.943Z" fill="#D8B58C"/>
<path opacity="0.89" d="M383.346 183.734C383.873 184.458 384.577 185.034 385.39 185.407C386.202 185.78 387.097 185.937 387.987 185.863C388.877 185.79 389.734 185.488 390.475 184.986C391.216 184.485 391.816 183.801 392.219 183C393.838 179.955 394.443 176.47 393.945 173.054C393.447 169.639 391.873 166.474 389.453 164.023C388.594 163.19 387.536 162.593 386.381 162.29C385.226 161.988 384.013 161.989 382.859 162.295C381.704 162.6 380.648 163.2 379.792 164.035C378.935 164.871 378.308 165.914 377.97 167.064C377.163 169.209 376.739 171.48 376.718 173.774C376.74 175.315 377.076 176.835 377.704 178.241C378.333 179.647 379.24 180.91 380.371 181.951C381.186 182.802 382.214 183.417 383.346 183.734Z" fill="#D8B58C"/>
<path opacity="0.89" d="M263.984 472.259C265.451 472.259 266.858 471.674 267.896 470.632C268.933 469.59 269.516 468.176 269.516 466.703C269.516 465.229 268.933 463.816 267.896 462.773C266.858 461.731 265.451 461.146 263.984 461.146C262.516 461.146 261.109 461.731 260.072 462.773C259.034 463.816 258.451 465.229 258.451 466.703C258.451 468.176 259.034 469.59 260.072 470.632C261.109 471.674 262.516 472.259 263.984 472.259Z" fill="#D8B58C"/>
<path opacity="0.89" d="M236.323 461.878C237.704 461.744 238.986 461.098 239.919 460.065C240.851 459.033 241.368 457.689 241.368 456.296C241.368 454.902 240.851 453.558 239.919 452.526C238.986 451.494 237.704 450.847 236.323 450.713C234.942 450.847 233.66 451.494 232.727 452.526C231.794 453.558 231.278 454.902 231.278 456.296C231.278 457.689 231.794 459.033 232.727 460.065C233.66 461.098 234.942 461.744 236.323 461.878Z" fill="#D8B58C"/>
<path opacity="0.89" d="M214.61 363.957C216.119 363.957 217.566 363.355 218.633 362.283C219.7 361.212 220.299 359.758 220.299 358.243C220.299 356.727 219.7 355.274 218.633 354.202C217.566 353.131 216.119 352.529 214.61 352.529C213.101 352.529 211.654 353.131 210.588 354.202C209.521 355.274 208.921 356.727 208.921 358.243C208.921 359.758 209.521 361.212 210.588 362.283C211.654 363.355 213.101 363.957 214.61 363.957Z" fill="#D8B58C"/>
<path opacity="0.89" d="M137.626 306.032C138.793 305.908 139.873 305.355 140.659 304.479C141.444 303.603 141.878 302.466 141.878 301.287C141.878 300.109 141.444 298.972 140.659 298.096C139.873 297.22 138.793 296.667 137.626 296.543C136.459 296.667 135.379 297.22 134.593 298.096C133.808 298.972 133.374 300.109 133.374 301.287C133.374 302.466 133.808 303.603 134.593 304.479C135.379 305.355 136.459 305.908 137.626 306.032Z" fill="#D8B58C"/>
<path opacity="0.89" d="M449.994 221.16C451.574 221.16 453.118 220.689 454.431 219.808C455.744 218.927 456.768 217.674 457.372 216.209C457.976 214.743 458.135 213.13 457.826 211.575C457.518 210.019 456.758 208.59 455.641 207.468C454.524 206.346 453.101 205.583 451.552 205.273C450.003 204.964 448.398 205.122 446.939 205.729C445.479 206.336 444.232 207.364 443.355 208.683C442.477 210.002 442.009 211.553 442.009 213.139C442.036 215.258 442.886 217.282 444.378 218.781C445.87 220.279 447.885 221.133 449.994 221.16Z" fill="#D8B58C"/>
<path opacity="0.89" d="M436.686 236.732C437.853 236.609 438.933 236.056 439.718 235.18C440.503 234.304 440.938 233.167 440.938 231.988C440.938 230.809 440.503 229.672 439.718 228.796C438.933 227.92 437.853 227.367 436.686 227.244C435.519 227.367 434.438 227.92 433.653 228.796C432.868 229.672 432.433 230.809 432.433 231.988C432.433 233.167 432.868 234.304 433.653 235.18C434.438 236.056 435.519 236.609 436.686 236.732Z" fill="#D8B58C"/>
<path opacity="0.89" d="M434.237 259.326C435.365 259.042 436.367 258.387 437.083 257.466C437.798 256.545 438.187 255.409 438.187 254.241C438.187 253.072 437.798 251.937 437.083 251.016C436.367 250.095 435.365 249.44 434.237 249.156C433.108 249.44 432.107 250.095 431.391 251.016C430.675 251.937 430.286 253.072 430.286 254.241C430.286 255.409 430.675 256.545 431.391 257.466C432.107 258.387 433.108 259.042 434.237 259.326Z" fill="#D8B58C"/>
<path opacity="0.89" d="M394.257 284.275C395.642 284.275 396.969 283.723 397.948 282.74C398.927 281.757 399.477 280.423 399.477 279.033C399.477 277.643 398.927 276.309 397.948 275.326C396.969 274.343 395.642 273.791 394.257 273.791C392.873 273.791 391.546 274.343 390.567 275.326C389.588 276.309 389.038 277.643 389.038 279.033C389.038 280.423 389.588 281.757 390.567 282.74C391.546 283.723 392.873 284.275 394.257 284.275Z" fill="#D8B58C"/>
<path opacity="0.89" d="M346.396 325.481C348.233 325.481 350.029 324.933 351.557 323.908C353.085 322.883 354.275 321.425 354.979 319.72C355.682 318.015 355.866 316.139 355.507 314.329C355.149 312.519 354.264 310.857 352.965 309.552C351.665 308.247 350.01 307.358 348.208 306.998C346.406 306.638 344.538 306.823 342.84 307.529C341.143 308.235 339.692 309.431 338.671 310.966C337.65 312.5 337.105 314.304 337.105 316.15C337.133 318.616 338.12 320.973 339.856 322.717C341.593 324.461 343.94 325.453 346.396 325.481Z" fill="#D8B58C"/>
<path opacity="0.89" d="M332.563 347.916C335.447 347.889 338.206 346.726 340.246 344.677C342.286 342.628 343.444 339.857 343.471 336.96C343.471 334.793 342.831 332.675 341.632 330.873C340.434 329.072 338.73 327.667 336.737 326.838C334.744 326.009 332.551 325.792 330.435 326.215C328.319 326.637 326.375 327.681 324.849 329.213C323.324 330.745 322.285 332.697 321.864 334.823C321.443 336.948 321.659 339.151 322.485 341.153C323.31 343.155 324.709 344.866 326.502 346.07C328.296 347.273 330.405 347.916 332.563 347.916Z" fill="#D8B58C"/>
<path opacity="0.89" d="M311.843 363.905C315.419 363.878 318.842 362.438 321.371 359.898C323.9 357.358 325.333 353.92 325.36 350.328C325.371 347.628 324.582 344.986 323.095 342.736C321.608 340.487 319.489 338.732 317.008 337.694C314.526 336.656 311.793 336.381 309.156 336.906C306.519 337.43 304.096 338.729 302.195 340.638C300.294 342.548 299.001 344.981 298.479 347.63C297.957 350.278 298.23 353.023 299.264 355.516C300.297 358.008 302.045 360.136 304.284 361.63C306.524 363.124 309.154 363.915 311.843 363.905Z" fill="#D8B58C"/>
<path opacity="0.89" d="M303.961 473.83C306.632 473.82 309.241 473.015 311.457 471.516C313.673 470.018 315.397 467.894 316.412 465.412C317.428 462.931 317.688 460.202 317.16 457.572C316.633 454.942 315.341 452.528 313.449 450.634C311.556 448.741 309.148 447.453 306.527 446.933C303.906 446.414 301.191 446.685 298.724 447.715C296.257 448.744 294.149 450.484 292.666 452.716C291.183 454.947 290.391 457.57 290.391 460.253C290.432 463.85 291.876 467.288 294.414 469.826C296.951 472.365 300.379 473.803 303.961 473.83Z" fill="#D8B58C"/>
<path opacity="0.89" d="M306.416 429.852C308.888 429.67 311.2 428.556 312.887 426.733C314.575 424.91 315.513 422.512 315.513 420.023C315.513 417.534 314.575 415.136 312.887 413.313C311.2 411.49 308.888 410.375 306.416 410.194C305.071 410.095 303.72 410.276 302.447 410.725C301.175 411.175 300.008 411.883 299.02 412.805C298.032 413.727 297.244 414.844 296.706 416.086C296.167 417.328 295.889 418.668 295.889 420.023C295.889 421.378 296.167 422.718 296.706 423.96C297.244 425.202 298.032 426.319 299.02 427.241C300.008 428.163 301.175 428.871 302.447 429.321C303.72 429.77 305.071 429.951 306.416 429.852Z" fill="#D8B58C"/>
<path opacity="0.89" d="M266.177 415.12C267.831 415.12 269.447 414.627 270.822 413.703C272.196 412.779 273.266 411.466 273.897 409.931C274.527 408.395 274.69 406.706 274.363 405.077C274.037 403.449 273.236 401.955 272.063 400.784C270.89 399.613 269.397 398.818 267.774 398.501C266.15 398.183 264.47 398.356 262.945 398.999C261.42 399.642 260.119 400.725 259.208 402.112C258.297 403.498 257.816 405.124 257.826 406.785C257.853 408.997 258.744 411.109 260.305 412.667C261.867 414.226 263.975 415.107 266.177 415.12Z" fill="#D8B58C"/>
<path opacity="0.89" d="M238.776 396.979C241.42 396.979 243.955 395.924 245.825 394.047C247.694 392.169 248.744 389.622 248.744 386.967C248.744 384.311 247.694 381.765 245.825 379.887C243.955 378.009 241.42 376.955 238.776 376.955C225.989 376.955 225.989 396.979 238.776 396.979Z" fill="#D8B58C"/>
<path opacity="0.89" d="M391.433 394.938C394.184 394.948 396.875 394.138 399.166 392.61C401.457 391.082 403.244 388.904 404.302 386.354C405.359 383.804 405.638 380.996 405.104 378.287C404.57 375.577 403.247 373.088 401.302 371.134C399.358 369.181 396.879 367.852 394.181 367.316C391.483 366.779 388.688 367.06 386.149 368.122C383.61 369.183 381.442 370.979 379.92 373.28C378.399 375.581 377.592 378.284 377.603 381.046C377.656 384.714 379.131 388.216 381.713 390.809C384.295 393.403 387.782 394.884 391.433 394.938Z" fill="#D8B58C"/>
<path opacity="0.89" d="M357.719 363.958C360.379 363.879 362.909 362.782 364.791 360.892C366.673 359.002 367.765 356.461 367.844 353.789C367.844 351.777 367.25 349.811 366.138 348.139C365.025 346.466 363.444 345.163 361.593 344.393C359.743 343.623 357.707 343.422 355.743 343.814C353.779 344.207 351.975 345.175 350.559 346.597C349.143 348.02 348.179 349.832 347.788 351.805C347.397 353.777 347.598 355.822 348.364 357.68C349.131 359.539 350.428 361.127 352.093 362.244C353.759 363.362 355.716 363.958 357.719 363.958Z" fill="#D8B58C"/>
<path opacity="0.89" d="M206.729 273.843C208.88 273.815 210.935 272.945 212.456 271.417C213.977 269.89 214.844 267.825 214.871 265.665C214.831 263.504 213.962 261.441 212.445 259.908C210.928 258.374 208.88 257.488 206.729 257.435C204.675 257.6 202.759 258.536 201.362 260.056C199.964 261.576 199.188 263.569 199.188 265.639C199.188 267.708 199.964 269.701 201.362 271.221C202.759 272.742 204.675 273.678 206.729 273.843Z" fill="#D8B58C"/>
<path opacity="0.89" d="M134.182 266.768C135.311 266.484 136.312 265.829 137.028 264.908C137.744 263.987 138.132 262.852 138.132 261.683C138.132 260.514 137.744 259.379 137.028 258.458C136.312 257.537 135.311 256.882 134.182 256.598C133.054 256.882 132.052 257.537 131.336 258.458C130.62 259.379 130.232 260.514 130.232 261.683C130.232 262.852 130.62 263.987 131.336 264.908C132.052 265.829 133.054 266.484 134.182 266.768Z" fill="#D8B58C"/>
<path opacity="0.89" d="M212.156 328.625C213.735 328.625 215.279 328.154 216.593 327.273C217.906 326.392 218.929 325.139 219.534 323.673C220.138 322.208 220.296 320.595 219.988 319.039C219.68 317.484 218.919 316.055 217.803 314.933C216.686 313.811 215.263 313.047 213.714 312.738C212.165 312.428 210.559 312.587 209.1 313.194C207.641 313.801 206.394 314.829 205.517 316.148C204.639 317.467 204.171 319.018 204.171 320.604C204.184 322.727 205.03 324.759 206.525 326.26C208.019 327.761 210.043 328.611 212.156 328.625Z" fill="#D8B58C"/>
<path opacity="0.89" d="M235.644 359.765C237.709 359.765 239.727 359.15 241.443 357.998C243.16 356.846 244.498 355.209 245.288 353.293C246.078 351.378 246.285 349.27 245.882 347.236C245.479 345.202 244.485 343.334 243.025 341.868C241.565 340.401 239.705 339.403 237.681 338.998C235.656 338.594 233.557 338.801 231.65 339.595C229.742 340.389 228.112 341.732 226.965 343.456C225.818 345.181 225.206 347.208 225.206 349.281C225.272 352.041 226.393 354.669 228.336 356.621C230.28 358.573 232.897 359.699 235.644 359.765Z" fill="#D8B58C"/>
</g>
<g style="mix-blend-mode:multiply" opacity="0.44">
<g style="mix-blend-mode:multiply" opacity="0.44">
<path d="M335.176 268.079C331.28 269.147 327.962 271.72 325.948 275.236C323.934 278.752 323.386 282.925 324.424 286.845C324.871 288.309 325.484 289.716 326.251 291.039C327.965 293.76 330.457 295.898 333.401 297.172C336.449 298.554 339.88 298.832 343.109 297.959C345.684 297.122 347.999 295.63 349.828 293.627C351.658 291.624 352.939 289.179 353.547 286.531V287.16V286.845C354.281 284.251 354.31 281.507 353.631 278.899C352.952 276.29 351.589 273.911 349.685 272.01C347.776 270.206 345.453 268.902 342.922 268.216C340.39 267.531 337.73 267.483 335.176 268.079Z" fill="#CE9B78"/>
</g>
<g style="mix-blend-mode:multiply" opacity="0.44">
<path d="M249.527 385.242C246.986 385.186 244.477 385.818 242.263 387.073C240.05 388.328 238.214 390.158 236.949 392.372C235.929 394.13 235.336 396.104 235.218 398.135C235.101 400.166 235.461 402.197 236.27 404.062C236.825 405.659 237.756 407.098 238.984 408.255C241.246 410.456 244.176 411.832 247.307 412.164C250.438 412.497 253.59 411.767 256.26 410.09C258.547 408.476 260.351 406.264 261.479 403.695C262.689 400.976 262.928 397.921 262.157 395.045C261.339 392.289 259.68 389.86 257.414 388.101C255.148 386.342 252.389 385.342 249.527 385.242Z" fill="#CE9B78"/>
</g>
<g style="mix-blend-mode:multiply" opacity="0.44">
<path d="M221.925 396.199C221.935 393.559 221.164 390.975 219.709 388.776C218.254 386.578 216.181 384.863 213.753 383.85C211.326 382.838 208.653 382.573 206.075 383.089C203.497 383.606 201.131 384.88 199.276 386.75C197.421 388.621 196.161 391.003 195.657 393.594C195.153 396.186 195.428 398.869 196.446 401.303C197.463 403.737 199.179 405.812 201.374 407.265C203.569 408.718 206.144 409.482 208.772 409.461C212.249 409.394 215.563 407.973 218.016 405.499C220.47 403.025 221.871 399.691 221.925 396.199Z" fill="#CE9B78"/>
</g>
<g style="mix-blend-mode:multiply" opacity="0.44">
<path d="M157.363 349.593C159.176 349.593 160.915 348.87 162.197 347.582C163.48 346.294 164.2 344.547 164.2 342.726C164.2 340.905 163.48 339.158 162.197 337.87C160.915 336.583 159.176 335.859 157.363 335.859C155.549 335.859 153.81 336.583 152.528 337.87C151.246 339.158 150.526 340.905 150.526 342.726C150.526 344.547 151.246 346.294 152.528 347.582C153.81 348.87 155.549 349.593 157.363 349.593Z" fill="#CE9B78"/>
</g>
<g style="mix-blend-mode:multiply" opacity="0.44">
<path d="M187.891 405.218C171.502 405.218 171.502 430.799 187.891 430.799C204.279 430.799 204.07 405.218 187.891 405.218Z" fill="#CE9B78"/>
</g>
<g style="mix-blend-mode:multiply" opacity="0.44">
<path d="M216.599 421.147C215.339 421.147 214.131 421.65 213.24 422.545C212.35 423.439 211.849 424.653 211.849 425.918C211.849 427.183 212.35 428.396 213.24 429.291C214.131 430.185 215.339 430.688 216.599 430.688C217.858 430.688 219.066 430.185 219.957 429.291C220.848 428.396 221.348 427.183 221.348 425.918C221.348 424.653 220.848 423.439 219.957 422.545C219.066 421.65 217.858 421.147 216.599 421.147Z" fill="#CE9B78"/>
</g>
<g style="mix-blend-mode:multiply" opacity="0.44">
<path d="M341.233 365.743C339.588 364.542 337.628 363.85 335.596 363.751C333.839 363.562 332.062 363.741 330.377 364.276L329.438 364.695C327.72 365.008 326.084 365.672 324.633 366.647C323.181 367.621 321.944 368.885 321 370.36C320.055 371.835 319.422 373.489 319.141 375.22C318.86 376.951 318.936 378.721 319.365 380.421C319.99 382.508 321.145 384.395 322.714 385.898C324.284 387.402 326.216 388.47 328.321 388.998C330.425 389.527 332.63 389.497 334.72 388.913C336.809 388.328 338.712 387.208 340.242 385.663C342.197 383.619 343.646 381.141 344.469 378.429C345.095 375.864 345.095 373.184 344.469 370.619C344.009 368.656 342.86 366.925 341.233 365.743Z" fill="#CE9B78"/>
</g>
<g style="mix-blend-mode:multiply" opacity="0.44">
<path d="M428.966 275.522C430.239 272.915 430.499 269.925 429.697 267.135C428.783 263.964 426.674 261.276 423.819 259.642C420.964 258.007 417.587 257.555 414.405 258.381C411.811 259.186 409.447 260.606 407.515 262.522C406.072 264.039 405.015 265.884 404.432 267.899C403.85 269.914 403.76 272.04 404.169 274.098C404.579 276.155 405.477 278.083 406.786 279.718C408.095 281.353 409.778 282.647 411.691 283.49C413.509 284.342 415.503 284.748 417.508 284.675C419.513 284.602 421.473 284.052 423.225 283.071C424.635 282.262 425.87 281.177 426.856 279.88C427.842 278.584 428.56 277.102 428.966 275.522Z" fill="#CE9B78"/>
</g>
<g style="mix-blend-mode:multiply" opacity="0.44">
<path d="M390.973 225.774C388.509 225.774 386.146 226.757 384.404 228.507C382.661 230.257 381.683 232.63 381.683 235.105C381.683 237.58 382.661 239.953 384.404 241.703C386.146 243.453 388.509 244.436 390.973 244.436C393.437 244.436 395.8 243.453 397.542 241.703C399.284 239.953 400.263 237.58 400.263 235.105C400.263 232.63 399.284 230.257 397.542 228.507C395.8 226.757 393.437 225.774 390.973 225.774Z" fill="#CE9B78"/>
</g>
<g style="mix-blend-mode:multiply" opacity="0.44">
<path d="M359.602 218.019C362.154 218.019 364.649 217.258 366.77 215.833C368.891 214.408 370.543 212.382 371.517 210.013C372.491 207.644 372.744 205.038 372.242 202.525C371.74 200.012 370.507 197.705 368.699 195.897C366.891 194.088 364.589 192.859 362.085 192.365C359.581 191.871 356.987 192.135 354.633 193.123C352.278 194.111 350.268 195.779 348.858 197.915C347.448 200.052 346.701 202.56 346.711 205.123C346.738 208.544 348.107 211.816 350.52 214.23C352.933 216.644 356.197 218.005 359.602 218.019Z" fill="#CE9B78"/>
</g>
<g style="mix-blend-mode:multiply" opacity="0.44">
<path d="M226.619 328.941C224.497 326.918 221.903 325.465 219.076 324.714C216.249 323.963 213.278 323.938 210.439 324.642C207.661 325.401 205.127 326.873 203.086 328.914C201.046 330.954 199.569 333.492 198.8 336.28C196.804 344.29 197.924 352.764 201.932 359.974C204.169 363.918 207.32 367.262 211.118 369.724C219.26 377.587 232.934 379.841 240.606 369.724C251.305 355.937 237.788 337.852 226.619 328.941Z" fill="#CE9B78"/>
</g>
<g style="mix-blend-mode:multiply" opacity="0.44">
<path d="M247.909 436.982L247.44 436.615C245.832 434.488 243.73 432.79 241.316 431.67C238.902 430.551 236.252 430.044 233.598 430.194C230.943 430.344 228.366 431.147 226.093 432.531C223.82 433.916 221.92 435.84 220.561 438.135C219.09 440.518 218.226 443.227 218.044 446.024C217.862 448.822 218.368 451.621 219.517 454.176C220.83 457.238 223.019 459.84 225.807 461.65C228.595 463.461 231.855 464.399 235.175 464.345C235.919 464.447 236.674 464.447 237.419 464.345C239.417 465.48 241.673 466.076 243.969 466.076C246.264 466.076 248.521 465.48 250.519 464.345C252.152 463.313 253.564 461.962 254.669 460.373C255.775 458.784 256.552 456.989 256.956 455.093C257.36 453.198 257.381 451.24 257.02 449.336C256.658 447.432 255.921 445.619 254.851 444.006C253.078 441.181 250.708 438.783 247.909 436.982Z" fill="#CE9B78"/>
</g>
<g style="mix-blend-mode:multiply" opacity="0.44">
<path d="M174.689 206.066C176.229 204.712 177.245 202.856 177.56 200.824C177.924 199.767 177.994 198.629 177.761 197.534C177.528 196.44 177.002 195.43 176.238 194.615C175.475 193.799 174.504 193.209 173.43 192.909C172.357 192.608 171.222 192.608 170.148 192.909C168.008 193.243 166.051 194.319 164.616 195.949C163.312 197.307 162.583 199.121 162.583 201.008C162.583 202.895 163.312 204.708 164.616 206.066C165.217 206.603 165.884 207.061 166.599 207.429C167.176 208.24 168.048 208.788 169.026 208.955C170.004 209.122 171.007 208.894 171.818 208.321L172.967 207.324C173.596 206.988 174.176 206.564 174.689 206.066Z" fill="#CE9B78"/>
</g>
<g style="mix-blend-mode:multiply" opacity="0.44">
<path d="M132.097 245.33C132.294 246.739 132.776 248.094 133.511 249.311C134.247 250.527 135.222 251.581 136.376 252.407C137.2 253.191 138.11 253.877 139.09 254.451C142.84 256.394 147.186 256.825 151.242 255.656C155.297 254.486 158.754 251.805 160.907 248.161C161.908 246.673 162.731 245.072 163.36 243.39C165.879 240.106 167.072 235.987 166.7 231.858C166.275 229.851 165.415 227.964 164.18 226.33C162.946 224.696 161.368 223.355 159.558 222.404C157.749 221.453 155.753 220.914 153.713 220.827C151.672 220.739 149.638 221.105 147.754 221.898C142.043 224.176 137.213 228.237 133.975 233.483C132.844 235.201 132.092 237.142 131.768 239.176C131.444 241.21 131.556 243.29 132.097 245.277V245.33Z" fill="#CE9B78"/>
</g>
<g style="mix-blend-mode:multiply" opacity="0.44">
<path d="M181.058 243.494C183.092 243.494 185.044 242.682 186.483 241.237C187.921 239.792 188.73 237.832 188.73 235.788C188.73 233.745 187.921 231.785 186.483 230.339C185.044 228.894 183.092 228.082 181.058 228.082C179.023 228.082 177.071 228.894 175.633 230.339C174.194 231.785 173.385 233.745 173.385 235.788C173.385 237.832 174.194 239.792 175.633 241.237C177.071 242.682 179.023 243.494 181.058 243.494Z" fill="#CE9B78"/>
</g>
<g style="mix-blend-mode:multiply" opacity="0.44">
<path d="M199.529 306.189C200.764 308.463 202.462 310.451 204.512 312.022C206.562 313.594 208.919 314.714 211.428 315.311C215.837 316.342 220.47 315.688 224.424 313.476C227.278 311.77 229.677 309.396 231.418 306.556C232.812 304.215 233.72 301.615 234.087 298.913C234.455 296.21 234.275 293.461 233.558 290.83C232.75 288.123 231.345 285.633 229.447 283.546C227.55 281.458 225.209 279.827 222.598 278.773C220.205 277.749 217.631 277.222 215.03 277.222C212.429 277.222 209.855 277.749 207.462 278.773C204.952 279.82 202.78 281.545 201.186 283.757C199.592 285.968 198.639 288.58 198.433 291.302C197.486 293.706 197.093 296.294 197.282 298.872C197.472 301.45 198.24 303.951 199.529 306.189Z" fill="#CE9B78"/>
</g>
<g style="mix-blend-mode:multiply" opacity="0.44">
<path d="M229.644 321.605C229.634 323.463 230.173 325.282 231.193 326.832C232.213 328.382 233.669 329.593 235.375 330.311C237.081 331.029 238.961 331.223 240.777 330.867C242.592 330.511 244.262 329.621 245.574 328.311C246.885 327.001 247.78 325.329 248.145 323.507C248.51 321.686 248.328 319.796 247.622 318.079C246.917 316.361 245.719 314.892 244.182 313.859C242.645 312.826 240.836 312.274 238.986 312.274C236.53 312.314 234.185 313.308 232.443 315.048C230.701 316.788 229.698 319.138 229.644 321.605Z" fill="#CE9B78"/>
</g>
<g style="mix-blend-mode:multiply" opacity="0.44">
<path d="M252.141 348.127C253.913 348.127 255.612 347.42 256.865 346.161C258.118 344.903 258.822 343.196 258.822 341.417C258.822 339.637 258.118 337.93 256.865 336.672C255.612 335.414 253.913 334.707 252.141 334.707C250.369 334.707 248.67 335.414 247.417 336.672C246.164 337.93 245.46 339.637 245.46 341.417C245.46 343.196 246.164 344.903 247.417 346.161C248.67 347.42 250.369 348.127 252.141 348.127Z" fill="#CE9B78"/>
</g>
<g style="mix-blend-mode:multiply" opacity="0.44">
<path d="M147.286 325.537C148.867 322.115 149.408 318.3 148.842 314.571C148.276 310.841 146.627 307.362 144.103 304.568C142.545 302.945 140.559 301.801 138.377 301.272C136.196 300.743 133.909 300.85 131.785 301.58C129.183 302.525 126.936 304.258 125.356 306.539C123.776 308.821 122.941 311.539 122.965 314.319C122.913 316.631 123.734 318.878 125.261 320.609C125.306 321.527 125.428 322.439 125.627 323.335C126.341 325.538 127.678 327.484 129.474 328.938C131.27 330.391 133.448 331.289 135.742 331.523C138.037 331.756 140.35 331.314 142.399 330.252C144.449 329.189 146.147 327.551 147.286 325.537Z" fill="#CE9B78"/>
</g>
<g style="mix-blend-mode:multiply" opacity="0.44">
<path d="M191.598 328.994C193.611 328.831 195.489 327.913 196.859 326.422C198.228 324.931 198.988 322.976 198.988 320.948C198.988 318.919 198.228 316.965 196.859 315.474C195.489 313.983 193.611 313.065 191.598 312.901C189.585 313.065 187.707 313.983 186.337 315.474C184.968 316.965 184.208 318.919 184.208 320.948C184.208 322.976 184.968 324.931 186.337 326.422C187.707 327.913 189.585 328.831 191.598 328.994Z" fill="#CE9B78"/>
</g>
<g style="mix-blend-mode:multiply" opacity="0.44">
<path d="M163.725 380.365C161.625 379.188 159.236 378.633 156.834 378.762C154.433 378.892 152.117 379.703 150.155 381.099C148.24 382.633 146.838 384.718 146.136 387.075C145.035 389.269 144.829 391.808 145.562 394.152C146.418 397.463 148.487 400.328 151.356 402.173C152.976 403.129 154.738 403.819 156.575 404.217C159.029 404.782 161.596 404.58 163.934 403.64C166.131 402.774 167.971 401.184 169.153 399.132C170.028 397.549 170.581 395.806 170.778 394.006C170.975 392.206 170.813 390.384 170.301 388.648C169.264 385.134 166.906 382.163 163.725 380.365Z" fill="#CE9B78"/>
</g>
<g style="mix-blend-mode:multiply" opacity="0.44">
<path d="M459.292 338.899C460.371 338.899 461.407 338.468 462.17 337.701C462.934 336.935 463.363 335.895 463.363 334.81C463.363 333.726 462.934 332.686 462.17 331.919C461.407 331.152 460.371 330.721 459.292 330.721C458.212 330.721 457.177 331.152 456.413 331.919C455.65 332.686 455.221 333.726 455.221 334.81C455.221 335.895 455.65 336.935 456.413 337.701C457.177 338.468 458.212 338.899 459.292 338.899Z" fill="#CE9B78"/>
</g>
<g style="mix-blend-mode:multiply" opacity="0.44">
<path d="M454.802 260.743C475.679 260.743 475.679 227.98 454.802 227.98C433.925 227.98 433.769 260.743 454.802 260.743Z" fill="#CE9B78"/>
</g>
<g style="mix-blend-mode:multiply" opacity="0.44">
<path d="M457.569 273.585C457.558 275.36 458.073 277.098 459.047 278.579C460.022 280.06 461.412 281.217 463.042 281.904C464.672 282.59 466.468 282.776 468.202 282.436C469.937 282.096 471.532 281.246 472.785 279.995C474.039 278.743 474.894 277.146 475.243 275.406C475.591 273.665 475.418 271.86 474.744 270.219C474.07 268.578 472.926 267.175 471.457 266.188C469.988 265.201 468.261 264.674 466.493 264.674C464.148 264.714 461.909 265.664 460.245 267.325C458.581 268.986 457.622 271.229 457.569 273.585Z" fill="#CE9B78"/>
</g>
<g style="mix-blend-mode:multiply" opacity="0.44">
<path d="M439.666 227.925C441.784 227.925 443.815 227.08 445.313 225.576C446.81 224.072 447.651 222.032 447.651 219.905C447.651 217.777 446.81 215.737 445.313 214.233C443.815 212.729 441.784 211.884 439.666 211.884C437.548 211.884 435.517 212.729 434.02 214.233C432.522 215.737 431.681 217.777 431.681 219.905C431.681 222.032 432.522 224.072 434.02 225.576C435.517 227.08 437.548 227.925 439.666 227.925Z" fill="#CE9B78"/>
</g>
<g style="mix-blend-mode:multiply" opacity="0.44">
<path d="M356.629 235.16C356.629 234.845 356.629 234.583 356.263 234.269C355.919 233.584 355.46 232.963 354.906 232.434C353.058 230.78 350.699 229.817 348.226 229.708C346.592 229.721 344.989 230.157 343.571 230.975C342.154 231.792 340.971 232.963 340.136 234.374C339.358 235.686 338.855 237.144 338.657 238.658C338.46 240.172 338.572 241.711 338.988 243.18C339.354 244.495 339.996 245.715 340.869 246.761C341.743 247.806 342.828 248.653 344.053 249.243C345.278 249.833 346.615 250.154 347.974 250.185C349.332 250.215 350.681 249.954 351.931 249.418C353.115 248.955 354.19 248.249 355.088 247.347C355.987 246.445 356.689 245.365 357.151 244.176C357.481 243.373 357.692 242.525 357.777 241.66C358.033 240.555 358.064 239.409 357.866 238.292C357.669 237.175 357.248 236.109 356.629 235.16Z" fill="#CE9B78"/>
</g>
<g style="mix-blend-mode:multiply" opacity="0.44">
<path d="M361.378 377.118C360.25 377.239 359.208 377.775 358.45 378.622C357.693 379.468 357.274 380.567 357.274 381.705C357.274 382.843 357.693 383.942 358.45 384.788C359.208 385.635 360.25 386.171 361.378 386.292C362.505 386.171 363.547 385.635 364.305 384.788C365.062 383.942 365.481 382.843 365.481 381.705C365.481 380.567 365.062 379.468 364.305 378.622C363.547 377.775 362.505 377.239 361.378 377.118Z" fill="#CE9B78"/>
</g>
<g style="mix-blend-mode:multiply" opacity="0.44">
<path d="M427.138 351.536C425.975 351.536 424.86 352 424.038 352.826C423.216 353.652 422.754 354.772 422.754 355.94C422.754 357.108 423.216 358.228 424.038 359.053C424.86 359.879 425.975 360.343 427.138 360.343C428.301 360.343 429.416 359.879 430.238 359.053C431.06 358.228 431.522 357.108 431.522 355.94C431.522 354.772 431.06 353.652 430.238 352.826C429.416 352 428.301 351.536 427.138 351.536Z" fill="#CE9B78"/>
</g>
<g style="mix-blend-mode:multiply" opacity="0.44">
<path d="M402.817 301.683C400.467 301.86 398.27 302.922 396.666 304.658C395.063 306.393 394.172 308.673 394.172 311.04C394.172 313.407 395.063 315.687 396.666 317.422C398.27 319.158 400.467 320.22 402.817 320.397C405.167 320.22 407.364 319.158 408.967 317.422C410.571 315.687 411.462 313.407 411.462 311.04C411.462 308.673 410.571 306.393 408.967 304.658C407.364 302.922 405.167 301.86 402.817 301.683Z" fill="#CE9B78"/>
</g>
<g style="mix-blend-mode:multiply" opacity="0.44">
<path d="M397.548 301.263C398.715 301.139 399.795 300.586 400.58 299.71C401.365 298.834 401.8 297.697 401.8 296.519C401.8 295.34 401.365 294.203 400.58 293.327C399.795 292.451 398.715 291.898 397.548 291.775C396.381 291.898 395.3 292.451 394.515 293.327C393.73 294.203 393.295 295.34 393.295 296.519C393.295 297.697 393.73 298.834 394.515 299.71C395.3 300.586 396.381 301.139 397.548 301.263Z" fill="#CE9B78"/>
</g>
<g style="mix-blend-mode:multiply" opacity="0.44">
<path d="M369.257 314.523C368.21 314.64 367.243 315.14 366.54 315.928C365.838 316.717 365.449 317.737 365.449 318.795C365.449 319.853 365.838 320.874 366.54 321.662C367.243 322.451 368.21 322.951 369.257 323.068C370.304 322.951 371.271 322.451 371.974 321.662C372.676 320.874 373.065 319.853 373.065 318.795C373.065 317.737 372.676 316.717 371.974 315.928C371.271 315.14 370.304 314.64 369.257 314.523Z" fill="#CE9B78"/>
</g>
<g style="mix-blend-mode:multiply" opacity="0.44">
<path d="M476.774 317.04C476.462 316.143 476.022 315.295 475.469 314.524C474.716 313.555 473.768 312.756 472.687 312.18C471.606 311.603 470.416 311.262 469.195 311.178C467.974 311.094 466.749 311.269 465.6 311.692C464.451 312.115 463.404 312.776 462.526 313.633C461.371 314.864 460.586 316.399 460.263 318.059C459.94 319.72 460.091 321.438 460.699 323.016C460.699 323.697 461.221 324.327 461.534 324.956C461.962 325.691 462.469 326.377 463.048 327C464.261 328.242 465.799 329.114 467.484 329.516C468.632 329.799 469.826 329.838 470.991 329.632C472.155 329.425 473.263 328.977 474.245 328.316C475.228 327.655 476.062 326.796 476.695 325.793C477.328 324.79 477.746 323.666 477.922 322.492C478.088 320.6 477.688 318.702 476.774 317.04Z" fill="#CE9B78"/>
</g>
<g style="mix-blend-mode:multiply" opacity="0.44">
<path d="M449.218 338.429C450.985 336.195 452.061 333.489 452.311 330.647C452.562 327.805 451.976 324.951 450.627 322.44C449.788 320.851 448.628 319.456 447.22 318.344C445.813 317.232 444.19 316.429 442.455 315.984C440.72 315.54 438.911 315.465 437.146 315.764C435.38 316.064 433.697 316.731 432.203 317.722C430.575 318.37 429.099 319.352 427.871 320.605C426.523 322.115 425.525 323.906 424.948 325.849C424.371 327.793 424.23 329.84 424.534 331.845C424.839 333.849 425.581 335.761 426.709 337.443C427.836 339.126 429.32 340.536 431.055 341.574C433.938 343.383 437.384 344.063 440.734 343.483C444.084 342.902 447.104 341.103 449.218 338.429Z" fill="#CE9B78"/>
</g>
<g style="mix-blend-mode:multiply" opacity="0.44">
<path d="M456.211 354.101C453.404 353.437 450.451 353.829 447.912 355.202C446.203 356.124 444.763 357.48 443.737 359.134C442.188 361.161 441.279 363.607 441.127 366.158C441.047 367.934 441.351 369.706 442.018 371.353C442.685 373 443.698 374.483 444.989 375.699C446.186 376.912 447.651 377.825 449.266 378.362C450.88 378.9 452.598 379.047 454.28 378.792C455.937 378.572 457.525 377.989 458.933 377.083C460.34 376.177 461.531 374.97 462.422 373.55C463.809 371.415 464.535 368.916 464.509 366.368C464.404 363.873 463.781 361.427 462.682 359.186C461.991 357.952 461.063 356.868 459.952 355.995C458.841 355.122 457.57 354.479 456.211 354.101Z" fill="#CE9B78"/>
</g>
</g>
<g style="mix-blend-mode:multiply" opacity="0.23">
<g style="mix-blend-mode:multiply" opacity="0.23">
<g style="mix-blend-mode:multiply" opacity="0.23">
<path d="M262.106 455.484C261.669 456.418 261.353 457.405 261.167 458.42C260.565 457.65 259.92 456.915 259.236 456.218C254.533 451.665 248.283 449.079 241.752 448.984C240.157 448.985 238.566 449.143 237.002 449.456C236.857 447.987 236.162 446.628 235.057 445.655C233.953 444.682 232.521 444.167 231.052 444.214C229.845 444.218 228.665 444.573 227.654 445.235C226.643 445.897 225.844 446.839 225.353 447.947C224.863 449.054 224.701 450.281 224.888 451.479C225.075 452.676 225.602 453.794 226.407 454.698C225.724 455.118 225.062 455.573 224.424 456.061C221.331 459.153 219.112 463.016 217.993 467.253C216.874 471.489 216.896 475.949 218.056 480.174V480.751L220.509 486.675C222 489.496 224.194 491.88 226.877 493.594C228.331 495.072 230.123 496.169 232.096 496.792C235.001 498.328 238.264 499.053 241.543 498.889C245.879 498.705 250.121 497.56 253.965 495.534C259.326 492.068 263.328 486.844 265.29 480.751V480.174C266.202 476.756 266.38 473.183 265.812 469.69C266.124 469.913 266.456 470.106 266.804 470.267C268.068 470.837 269.437 471.131 270.823 471.131C272.208 471.131 273.577 470.837 274.841 470.267C276.134 469.962 277.35 469.39 278.41 468.586C279.471 467.783 280.353 466.766 281 465.601C282.129 463.56 282.548 461.198 282.188 458.89C281.829 456.582 280.713 454.461 279.017 452.863C277.798 451.766 276.352 450.954 274.783 450.486C273.214 450.018 271.562 449.905 269.944 450.156C268.327 450.406 266.785 451.014 265.429 451.936C264.074 452.857 262.939 454.069 262.106 455.484Z" fill="#C87E56"/>
</g>
<g style="mix-blend-mode:multiply" opacity="0.23">
<path d="M168.942 264.305C166.476 263.675 163.893 263.675 161.427 264.305C158.81 265.104 156.518 266.729 154.892 268.938C153.266 271.147 152.391 273.824 152.398 276.571C151.849 278.266 151.55 280.032 151.51 281.813C151.465 284.688 152.319 287.504 153.952 289.866C155.584 292.227 157.914 294.014 160.612 294.975C163.309 295.936 166.239 296.023 168.989 295.223C171.738 294.422 174.168 292.776 175.936 290.515C178.167 287.345 179.186 283.475 178.807 279.612C179.005 277.493 178.764 275.355 178.1 273.334C177.435 271.313 176.361 269.453 174.944 267.869L172.648 266.087C174.736 267.764 174.892 267.922 173.17 266.611C171.959 265.522 170.511 264.732 168.942 264.305Z" fill="#C87E56"/>
</g>
<g style="mix-blend-mode:multiply" opacity="0.23">
<path d="M236.32 160.458C237.603 160.427 238.849 160.017 239.901 159.278C240.953 158.539 241.765 157.506 242.235 156.306C242.705 155.106 242.812 153.794 242.543 152.533C242.273 151.273 241.64 150.12 240.722 149.219C239.803 148.318 238.641 147.71 237.38 147.469C236.119 147.229 234.815 147.368 233.632 147.868C232.449 148.368 231.439 149.208 230.729 150.282C230.019 151.356 229.64 152.616 229.64 153.905C229.646 154.777 229.825 155.639 230.165 156.441C230.505 157.243 231 157.97 231.621 158.579C232.242 159.188 232.977 159.668 233.784 159.991C234.59 160.313 235.452 160.472 236.32 160.458Z" fill="#C87E56"/>
</g>
<g style="mix-blend-mode:multiply" opacity="0.23">
<path d="M207.981 186.562C208.74 186.95 209.548 187.233 210.382 187.401C212.52 187.837 214.726 187.795 216.846 187.278C218.966 186.762 220.946 185.784 222.647 184.413C224.763 183.105 226.538 181.311 227.827 179.178C229.116 177.045 229.881 174.635 230.059 172.147C230.006 168.937 228.724 165.871 226.479 163.586C224.233 161.301 221.197 159.974 218.002 159.88C215.453 159.814 212.931 160.429 210.695 161.662C209.161 162.436 207.767 163.464 206.572 164.703C205.436 165.378 204.385 166.188 203.441 167.114C201.948 168.64 200.875 170.529 200.326 172.597C199.777 174.664 199.771 176.839 200.309 178.909C200.847 180.728 201.832 182.382 203.172 183.72C204.513 185.057 206.167 186.035 207.981 186.562Z" fill="#C87E56"/>
</g>
<g style="mix-blend-mode:multiply" opacity="0.23">
<path d="M235.643 167.273C235.196 168.886 235.352 170.608 236.081 172.114C236.81 173.62 238.061 174.807 239.6 175.451C241.139 176.095 242.86 176.152 244.438 175.611C246.016 175.07 247.343 173.969 248.169 172.515C249.056 170.929 249.296 169.059 248.838 167.3C248.381 165.54 247.261 164.027 245.716 163.079C244.802 162.553 243.781 162.245 242.73 162.178C241.679 162.111 240.627 162.286 239.654 162.691C238.681 163.096 237.814 163.72 237.119 164.514C236.423 165.308 235.918 166.252 235.643 167.273Z" fill="#C87E56"/>
</g>
<g style="mix-blend-mode:multiply" opacity="0.23">
<path d="M354.899 175.502C357.387 176.291 360.009 176.558 362.604 176.288C365.198 176.017 367.71 175.214 369.983 173.929C372.368 172.505 374.298 170.426 375.546 167.937C376.795 165.448 377.309 162.653 377.029 159.88C376.97 157.275 376.401 154.707 375.353 152.324C374.305 149.94 372.799 147.787 370.922 145.989C366.989 141.703 361.948 138.6 356.361 137.025C354.089 136.398 351.691 136.398 349.419 137.025C346.49 137.098 343.63 137.94 341.125 139.466C338.619 140.992 336.554 143.15 335.135 145.725C333.716 148.3 332.992 151.203 333.035 154.146C333.078 157.088 333.886 159.969 335.38 162.501C339.998 169.176 346.98 173.827 354.899 175.502Z" fill="#C87E56"/>
</g>
<g style="mix-blend-mode:multiply" opacity="0.23">
<path d="M401.561 183.054C403.179 184.114 404.936 184.943 406.78 185.518C408.746 186.085 410.824 186.127 412.811 185.64C414.797 185.153 416.622 184.153 418.106 182.74C419.376 181.502 420.289 179.942 420.748 178.226C421.208 176.509 421.196 174.7 420.716 172.989C420.471 172.169 420.139 171.378 419.724 170.63C418.829 168.796 417.363 167.305 415.549 166.384C414.928 165.648 414.266 164.948 413.565 164.287C412.519 163.378 411.402 162.555 410.225 161.824H409.86L408.972 161.142L407.772 160.303C405.834 159.177 403.539 158.842 401.363 159.369C399.186 159.896 397.295 161.244 396.081 163.134C394.906 164.344 394.07 165.844 393.657 167.482C393.245 169.121 393.271 170.84 393.732 172.465C395.16 176.738 397.901 180.446 401.561 183.054Z" fill="#C87E56"/>
</g>
<g style="mix-blend-mode:multiply" opacity="0.23">
<path d="M395.399 196.312C395.864 196.793 396.433 197.159 397.062 197.383C397.691 197.606 398.363 197.681 399.026 197.6C399.688 197.52 400.323 197.287 400.881 196.92C401.439 196.553 401.905 196.061 402.243 195.483C402.581 194.905 402.781 194.257 402.828 193.588C402.876 192.92 402.768 192.25 402.515 191.63C402.262 191.01 401.869 190.457 401.368 190.014C400.867 189.571 400.271 189.251 399.627 189.078L397.852 188.711C397.056 188.497 396.212 188.551 395.45 188.866C394.687 189.181 394.049 189.74 393.634 190.455C393.219 191.17 393.049 192.002 393.151 192.824C393.253 193.646 393.621 194.411 394.199 195.001L395.399 196.312Z" fill="#C87E56"/>
</g>
<g style="mix-blend-mode:multiply" opacity="0.23">
<path d="M446.08 330.248C450.56 327.649 453.883 323.43 455.37 318.453C456.663 314.342 456.663 309.931 455.37 305.82C454.538 302.599 452.69 299.735 450.103 297.656C447.516 295.577 444.329 294.396 441.017 294.287C438.122 294.281 435.283 295.082 432.813 296.599C430.344 298.117 428.342 300.293 427.03 302.884C425.718 305.582 425.227 308.609 425.621 311.586C424.865 315.04 424.865 318.617 425.621 322.07C426.139 324.07 427.124 325.916 428.495 327.457C429.865 328.998 431.582 330.188 433.502 330.929C435.511 331.788 437.689 332.173 439.869 332.055C442.05 331.936 444.174 331.318 446.08 330.248Z" fill="#C87E56"/>
</g>
<g style="mix-blend-mode:multiply" opacity="0.23">
<path d="M377.764 259.215C376.708 262.387 376.746 265.825 377.873 268.973C379 272.12 381.149 274.795 383.975 276.566C385.713 277.566 387.66 278.145 389.66 278.258C391.661 278.37 393.66 278.013 395.499 277.214C397.337 276.416 398.966 275.197 400.254 273.656C401.542 272.115 402.455 270.293 402.92 268.336C403.196 267.151 403.319 265.936 403.286 264.719C403.505 263.807 403.645 262.877 403.703 261.941C404.486 260.578 404.899 259.032 404.899 257.459C404.899 255.885 404.486 254.339 403.703 252.977C402.527 251.028 400.822 249.456 398.789 248.444C396.756 247.432 394.477 247.022 392.221 247.263C390.18 247.556 388.252 248.388 386.636 249.674C384.531 250.48 382.637 251.758 381.099 253.412C379.561 255.065 378.42 257.05 377.764 259.215Z" fill="#C87E56"/>
</g>
<g style="mix-blend-mode:multiply" opacity="0.23">
<path d="M401.511 214.346C399.518 214.346 397.606 215.141 396.196 216.556C394.787 217.972 393.995 219.892 393.995 221.894C393.995 223.896 394.787 225.816 396.196 227.232C397.606 228.647 399.518 229.443 401.511 229.443C403.504 229.443 405.416 228.647 406.825 227.232C408.235 225.816 409.026 223.896 409.026 221.894C409.026 219.892 408.235 217.972 406.825 216.556C405.416 215.141 403.504 214.346 401.511 214.346Z" fill="#C87E56"/>
</g>
<g style="mix-blend-mode:multiply" opacity="0.23">
<path d="M209.182 346.709C205.604 344.71 201.584 343.647 197.491 343.616C194.389 343.688 191.388 344.74 188.915 346.622C186.442 348.504 184.621 351.12 183.712 354.1C183.096 356.456 183.205 358.944 184.025 361.237C184.845 363.53 186.337 365.519 188.305 366.943C188.969 368.463 189.927 369.835 191.123 370.98C198.274 377.585 211.113 378.581 216.854 369.354C217.95 367.386 218.622 365.208 218.826 362.962C219.029 360.715 218.761 358.451 218.038 356.316C217.314 354.181 216.152 352.222 214.626 350.567C213.101 348.912 211.246 347.597 209.182 346.709Z" fill="#C87E56"/>
</g>
<g style="mix-blend-mode:multiply" opacity="0.23">
<path d="M181.519 358.135C181.016 356.8 180.293 355.56 179.38 354.466L179.014 353.942L178.701 353.575C177.15 352.06 175.071 351.214 172.908 351.216C171.084 351.239 169.293 351.707 167.689 352.579C165.953 353.637 164.601 355.227 163.831 357.114C163.061 359 162.913 361.085 163.409 363.063C163.355 363.34 163.355 363.625 163.409 363.902C163.7 366.342 164.943 368.566 166.867 370.084C168.79 371.603 171.235 372.293 173.665 372.001C176.094 371.709 178.308 370.459 179.82 368.528C181.333 366.596 182.019 364.14 181.728 361.7C181.728 363.744 181.415 363.902 181.728 362.119C182.021 360.797 181.949 359.42 181.519 358.135Z" fill="#C87E56"/>
</g>
<g style="mix-blend-mode:multiply" opacity="0.23">
<path d="M146.134 373.865C147.447 373.307 148.62 372.462 149.568 371.392C150.516 370.322 151.215 369.054 151.614 367.679C152.447 364.941 152.555 362.032 151.927 359.239C151.205 356.522 149.865 354.01 148.013 351.9C147.135 351.019 146.094 350.32 144.948 349.843C143.801 349.366 142.573 349.12 141.332 349.12C140.091 349.12 138.863 349.366 137.717 349.843C136.57 350.32 135.529 351.019 134.652 351.9C133.776 352.772 133.081 353.809 132.606 354.951C132.131 356.094 131.886 357.32 131.885 358.558C131.885 358.558 131.885 358.977 131.885 359.187C131.28 361.771 131.481 364.479 132.459 366.945C133.666 369.5 135.565 371.662 137.94 373.183C139.154 373.94 140.53 374.397 141.955 374.515C143.38 374.633 144.812 374.411 146.134 373.865Z" fill="#C87E56"/>
</g>
<g style="mix-blend-mode:multiply" opacity="0.23">
<path d="M269.623 399.917C270.138 400.019 270.644 400.159 271.137 400.337C272.819 400.825 274.593 400.907 276.313 400.576C278.033 400.245 279.651 399.51 281.035 398.432C282.419 397.354 283.529 395.962 284.276 394.371C285.023 392.78 285.385 391.034 285.333 389.276C285.053 384.099 283.112 379.152 279.801 375.175C277.227 371.964 274.418 368.95 271.398 366.158C269.829 364.652 267.893 363.586 265.784 363.069C263.675 362.552 261.468 362.601 259.384 363.212C257.3 363.823 255.413 364.974 253.912 366.549C252.411 368.125 251.35 370.069 250.834 372.187C249.66 378.056 250.722 384.155 253.809 389.276C256.732 394.78 262.943 400.756 269.623 399.917Z" fill="#C87E56"/>
</g>
<g style="mix-blend-mode:multiply" opacity="0.23">
<path d="M289.349 379.683C290.2 379.86 291.081 379.82 291.912 379.568C292.744 379.316 293.5 378.86 294.112 378.24C294.723 377.621 295.171 376.858 295.415 376.02C295.659 375.183 295.691 374.298 295.508 373.445C295.277 372.466 294.834 371.55 294.212 370.762C293.59 369.974 292.803 369.333 291.906 368.884C290.914 368.308 289.76 368.075 288.623 368.223C287.486 368.371 286.429 368.89 285.616 369.701C284.802 370.513 284.277 371.57 284.122 372.711C283.966 373.852 284.189 375.013 284.756 376.013C285.222 376.915 285.872 377.707 286.664 378.339C287.455 378.972 288.37 379.429 289.349 379.683Z" fill="#C87E56"/>
</g>
<g style="mix-blend-mode:multiply" opacity="0.23">
<path d="M296.865 379.264C295.107 379.416 293.471 380.225 292.278 381.53C291.086 382.836 290.425 384.543 290.425 386.314C290.425 388.086 291.086 389.793 292.278 391.098C293.471 392.404 295.107 393.213 296.865 393.365C298.622 393.213 300.258 392.404 301.451 391.098C302.643 389.793 303.305 388.086 303.305 386.314C303.305 384.543 302.643 382.836 301.451 381.53C300.258 380.225 298.622 379.416 296.865 379.264Z" fill="#C87E56"/>
</g>
<g style="mix-blend-mode:multiply" opacity="0.23">
<path d="M438.409 394.989C429.328 388.436 417.95 398.606 413.774 406.155C412.923 407.773 412.459 409.567 412.417 411.397C410.905 413.289 410.121 415.665 410.207 418.089C410.294 420.514 411.245 422.827 412.887 424.607C423.325 435.091 437.104 414.857 441.697 406.889C442.747 404.855 442.991 402.497 442.381 400.29C441.771 398.082 440.352 396.189 438.409 394.989Z" fill="#C87E56"/>
</g>
<g style="mix-blend-mode:multiply" opacity="0.23">
<path d="M296.865 152.54C298.327 152.401 299.685 151.72 300.673 150.629C301.661 149.539 302.209 148.117 302.209 146.642C302.209 145.168 301.661 143.746 300.673 142.655C299.685 141.565 298.327 140.884 296.865 140.745C295.404 140.884 294.046 141.565 293.058 142.655C292.069 143.746 291.522 145.168 291.522 146.642C291.522 148.117 292.069 149.539 293.058 150.629C294.046 151.72 295.404 152.401 296.865 152.54Z" fill="#C87E56"/>
</g>
<g style="mix-blend-mode:multiply" opacity="0.23">
<path d="M300.83 161.819C301.624 161.718 302.354 161.329 302.883 160.726C303.413 160.123 303.705 159.347 303.705 158.543C303.705 157.739 303.413 156.962 302.883 156.359C302.354 155.756 301.624 155.367 300.83 155.266C300.036 155.367 299.306 155.756 298.777 156.359C298.247 156.962 297.955 157.739 297.955 158.543C297.955 159.347 298.247 160.123 298.777 160.726C299.306 161.329 300.036 161.718 300.83 161.819Z" fill="#C87E56"/>
</g>
<g style="mix-blend-mode:multiply" opacity="0.23">
<path d="M309.389 155.529C310.69 155.529 311.938 155.01 312.858 154.085C313.778 153.161 314.295 151.908 314.295 150.601C314.295 149.294 313.778 148.041 312.858 147.117C311.938 146.193 310.69 145.674 309.389 145.674C308.088 145.674 306.84 146.193 305.92 147.117C305 148.041 304.483 149.294 304.483 150.601C304.483 151.908 305 153.161 305.92 154.085C306.84 155.01 308.088 155.529 309.389 155.529Z" fill="#C87E56"/>
</g>
<g style="mix-blend-mode:multiply" opacity="0.23">
<path d="M290.811 461.93C289.773 461.609 288.652 461.686 287.667 462.147C286.682 462.608 285.903 463.42 285.48 464.426C285.058 465.432 285.022 466.559 285.38 467.589C285.738 468.62 286.465 469.48 287.419 470.003C288.428 470.567 289.616 470.719 290.734 470.426C291.852 470.133 292.814 469.418 293.421 468.431C293.766 467.848 293.973 467.192 294.025 466.516C294.077 465.839 293.973 465.16 293.72 464.531C293.467 463.902 293.073 463.339 292.569 462.888C292.064 462.437 291.463 462.109 290.811 461.93Z" fill="#C87E56"/>
</g>
<g style="mix-blend-mode:multiply" opacity="0.23">
<path d="M288.985 446.413C287.695 446.413 286.434 446.797 285.361 447.517C284.288 448.237 283.452 449.26 282.958 450.458C282.464 451.655 282.335 452.972 282.587 454.244C282.838 455.515 283.46 456.682 284.372 457.599C285.284 458.515 286.447 459.139 287.712 459.392C288.978 459.645 290.29 459.515 291.482 459.019C292.674 458.523 293.693 457.683 294.41 456.606C295.127 455.528 295.509 454.261 295.509 452.965C295.469 451.24 294.769 449.596 293.554 448.376C292.339 447.156 290.703 446.453 288.985 446.413Z" fill="#C87E56"/>
</g>
<g style="mix-blend-mode:multiply" opacity="0.23">
<path d="M305.738 462.874C305.723 462.325 305.586 461.786 305.336 461.297C305.086 460.808 304.73 460.382 304.294 460.05C303.858 459.718 303.354 459.489 302.818 459.378C302.282 459.268 301.728 459.281 301.197 459.414H300.571C299.85 459.62 299.215 460.056 298.762 460.657C298.31 461.257 298.065 461.99 298.065 462.743C298.065 463.496 298.31 464.229 298.762 464.83C299.215 465.43 299.85 465.866 300.571 466.072H301.197C301.708 466.203 302.24 466.221 302.758 466.126C303.276 466.031 303.768 465.825 304.199 465.521C304.631 465.217 304.991 464.824 305.257 464.367C305.523 463.91 305.687 463.401 305.738 462.874Z" fill="#C87E56"/>
</g>
<g style="mix-blend-mode:multiply" opacity="0.23">
<path d="M131.469 281.915C132.816 283.18 134.482 284.05 136.287 284.43C138.092 284.81 139.966 284.685 141.705 284.068C143.444 283.452 144.981 282.368 146.149 280.934C147.317 279.501 148.07 277.773 148.327 275.939C148.7 274.376 148.893 272.775 148.901 271.168C148.954 270.488 148.954 269.804 148.901 269.124C148.901 268.442 148.536 265.821 148.64 267.289C148.615 264.921 147.724 262.644 146.135 260.894C144.497 259.163 142.248 258.147 139.872 258.063C137.865 258.081 135.899 258.634 134.175 259.665C132.451 260.697 131.031 262.17 130.06 263.934C129.085 265.595 128.478 267.447 128.28 269.365C128.082 271.283 128.297 273.221 128.912 275.047C128.815 276.31 128.994 277.579 129.435 278.765C129.877 279.951 130.571 281.026 131.469 281.915Z" fill="#C87E56"/>
</g>
<g style="mix-blend-mode:multiply" opacity="0.23">
<path d="M155.839 243.964H155.473C154.628 244.121 153.827 244.461 153.125 244.96C151.829 245.544 150.777 246.564 150.15 247.843C149.514 248.953 149.136 250.193 149.045 251.471C148.954 252.749 149.151 254.03 149.623 255.22C150.095 256.41 150.829 257.478 151.77 258.342C152.711 259.207 153.834 259.847 155.056 260.214C156.291 260.558 157.595 260.564 158.834 260.232C160.073 259.901 161.201 259.243 162.102 258.327L163.459 257.121C164.679 255.877 165.461 254.267 165.687 252.536C165.913 250.804 165.571 249.046 164.711 247.528C163.763 246.105 162.408 245.002 160.824 244.366C159.241 243.73 157.503 243.59 155.839 243.964Z" fill="#C87E56"/>
</g>
<g style="mix-blend-mode:multiply" opacity="0.23">
<path d="M145.509 235.891C144.342 236.014 143.261 236.567 142.476 237.443C141.691 238.319 141.256 239.456 141.256 240.635C141.256 241.813 141.691 242.95 142.476 243.826C143.261 244.702 144.342 245.255 145.509 245.379C146.676 245.255 147.756 244.702 148.541 243.826C149.327 242.95 149.761 241.813 149.761 240.635C149.761 239.456 149.327 238.319 148.541 237.443C147.756 236.567 146.676 236.014 145.509 235.891Z" fill="#C87E56"/>
</g>
<g style="mix-blend-mode:multiply" opacity="0.23">
<path d="M385.854 295.072C384.433 295.209 383.113 295.873 382.153 296.934C381.192 297.995 380.66 299.378 380.66 300.812C380.66 302.247 381.192 303.629 382.153 304.691C383.113 305.752 384.433 306.416 385.854 306.553C387.276 306.416 388.596 305.752 389.556 304.691C390.516 303.629 391.049 302.247 391.049 300.812C391.049 299.378 390.516 297.995 389.556 296.934C388.596 295.873 387.276 295.209 385.854 295.072Z" fill="#C87E56"/>
</g>
<g style="mix-blend-mode:multiply" opacity="0.23">
<path d="M427.29 235.472C425.573 235.623 423.975 236.414 422.81 237.69C421.646 238.966 421 240.635 421 242.366C421 244.097 421.646 245.765 422.81 247.041C423.975 248.317 425.573 249.108 427.29 249.259C429.007 249.108 430.605 248.317 431.77 247.041C432.934 245.765 433.58 244.097 433.58 242.366C433.58 240.635 432.934 238.966 431.77 237.69C430.605 236.414 429.007 235.623 427.29 235.472Z" fill="#C87E56"/>
</g>
<g style="mix-blend-mode:multiply" opacity="0.23">
<path d="M428.285 230.645C451.406 230.645 451.458 194.631 428.285 194.631C405.112 194.631 405.164 230.645 428.285 230.645Z" fill="#C87E56"/>
</g>
<g style="mix-blend-mode:multiply" opacity="0.23">
<path d="M377.818 202.602C376.08 203.216 374.627 204.45 373.735 206.069C372.843 207.688 372.575 209.58 372.98 211.385C373.386 213.19 374.437 214.782 375.935 215.86C377.432 216.937 379.272 217.425 381.104 217.23C382.936 217.034 384.633 216.17 385.872 214.801C387.112 213.432 387.807 211.653 387.827 209.803C387.846 207.953 387.188 206.16 385.978 204.765C384.768 203.369 383.09 202.469 381.262 202.235C383.337 201.58 385.096 200.174 386.196 198.29C387.297 196.406 387.661 194.179 387.218 192.04C386.775 189.902 385.557 188.005 383.799 186.718C382.042 185.431 379.871 184.846 377.709 185.076C375.546 185.306 373.546 186.336 372.096 187.964C370.647 189.593 369.852 191.704 369.865 193.889C369.879 196.073 370.7 198.174 372.17 199.784C373.639 201.395 375.652 202.399 377.818 202.602Z" fill="#C87E56"/>
</g>
<g style="mix-blend-mode:multiply" opacity="0.23">
<path d="M412.315 372.183C441.073 372.183 441.125 327.311 412.315 327.311C383.505 327.311 383.714 372.183 412.315 372.183Z" fill="#C87E56"/>
</g>
<g style="mix-blend-mode:multiply" opacity="0.23">
<path d="M399.684 383.245C397.626 383.161 395.599 383.771 393.925 384.977C392.251 386.183 391.027 387.917 390.446 389.902C388.624 388.32 386.278 387.478 383.87 387.544C370.666 387.544 370.613 408.197 383.87 408.197C385.99 408.277 388.074 407.637 389.787 406.382C391.501 405.127 392.744 403.329 393.317 401.278C395.088 402.796 397.357 403.599 399.684 403.532C412.68 403.637 412.732 383.245 399.684 383.245Z" fill="#C87E56"/>
</g>
<g style="mix-blend-mode:multiply" opacity="0.23">
<path d="M444.097 369.249C427.709 369.249 427.709 394.778 444.097 394.778C460.486 394.778 460.486 369.249 444.097 369.249Z" fill="#C87E56"/>
</g>
<g style="mix-blend-mode:multiply" opacity="0.23">
<path d="M482.094 311.326C462.574 311.326 462.522 341.782 482.094 341.782C501.666 341.782 501.666 311.326 482.094 311.326Z" fill="#C87E56"/>
</g>
<g style="mix-blend-mode:multiply" opacity="0.23">
<path d="M461.842 341.15C445.662 341.15 445.662 366.416 461.842 366.416C478.021 366.416 478.073 341.15 461.842 341.15Z" fill="#C87E56"/>
</g>
<g style="mix-blend-mode:multiply" opacity="0.23">
<path d="M332.562 456.061C329.278 456.097 326.026 456.718 322.958 457.895C324.248 456.792 325.231 455.371 325.812 453.773C326.393 452.175 326.552 450.452 326.273 448.774C325.995 447.096 325.288 445.518 324.222 444.195C323.157 442.872 321.768 441.849 320.192 441.225C322.377 440.687 324.32 439.429 325.711 437.652C327.101 435.876 327.859 433.683 327.864 431.423C327.864 428.726 326.798 426.139 324.899 424.232C323 422.324 320.425 421.253 317.739 421.253C315.054 421.253 312.478 422.324 310.58 424.232C308.681 426.139 307.614 428.726 307.614 431.423C307.677 433.573 308.396 435.652 309.675 437.377C310.955 439.103 312.731 440.391 314.764 441.068C312.609 441.729 310.758 443.138 309.541 445.043C308.325 446.948 307.822 449.225 308.124 451.468C308.425 453.711 309.51 455.773 311.185 457.287C312.861 458.8 315.017 459.666 317.27 459.73C317.895 459.787 318.523 459.787 319.148 459.73C316.726 460.993 314.508 462.62 312.572 464.553C307.587 470.06 304.67 477.142 304.326 484.577C304.344 492.082 307.307 499.277 312.572 504.602C317.883 509.91 325.07 512.889 332.562 512.889C340.054 512.889 347.241 509.91 352.551 504.602C357.537 499.095 360.453 492.013 360.798 484.577C360.779 477.073 357.816 469.878 352.551 464.553C347.208 459.268 340.059 456.231 332.562 456.061Z" fill="#C87E56"/>
</g>
<g style="mix-blend-mode:multiply" opacity="0.23">
<path d="M185.489 412.602H184.654C188.309 408.947 190.39 403.996 190.447 398.815C190.432 393.688 188.407 388.772 184.81 385.133C181.142 381.596 176.273 379.59 171.188 379.524C166.092 379.583 161.214 381.611 157.566 385.186C153.983 388.834 151.961 393.743 151.929 398.868C151.929 399.182 151.929 399.444 151.929 399.759C137.211 399.759 137.159 422.719 151.929 422.719C154.136 422.795 156.311 422.166 158.139 420.923C159.968 419.68 161.357 417.886 162.107 415.799C163.968 416.807 165.976 417.515 168.057 417.896C147.18 432.784 153.025 474.196 185.489 474.196C224.998 474.196 225.05 412.602 185.489 412.602Z" fill="#C87E56"/>
</g>
<g style="mix-blend-mode:multiply" opacity="0.23">
<path d="M135.696 343.878C136.294 345.138 137.244 346.195 138.43 346.921C139.617 347.648 140.988 348.011 142.377 347.967C144.453 347.967 146.444 347.138 147.912 345.664C149.381 344.189 150.205 342.189 150.205 340.104C150.205 338.018 149.381 336.018 147.912 334.544C146.444 333.069 144.453 332.241 142.377 332.241H142.063C142.898 329.78 143.27 327.184 143.16 324.587C143.16 323.748 143.16 322.91 143.16 322.123C143.967 323.11 144.989 323.898 146.147 324.425C147.306 324.952 148.569 325.205 149.84 325.164C152.221 325.164 154.504 324.214 156.188 322.523C157.871 320.832 158.817 318.539 158.817 316.147C158.817 313.756 157.871 311.463 156.188 309.772C154.504 308.081 152.221 307.131 149.84 307.131C147.73 306.921 145.621 307.542 143.957 308.861C142.292 310.181 141.202 312.098 140.915 314.208C139.621 310.437 137.436 307.038 134.548 304.3C129.119 299.032 121.898 296.033 114.35 295.913C106.795 296.002 99.5628 299.004 94.1513 304.3C91.4055 306.796 89.37 309.98 88.2536 313.526C86.4522 316.923 85.5873 320.742 85.7484 324.587C85.7984 332.178 88.8163 339.445 94.1513 344.822C99.5129 350.193 106.777 353.21 114.35 353.21C121.922 353.21 129.186 350.193 134.548 344.822L135.696 343.878Z" fill="#C87E56"/>
</g>
<g style="mix-blend-mode:multiply" opacity="0.23">
<path d="M177.867 333.498C177.776 330.747 176.647 328.133 174.709 326.186C172.771 324.239 170.168 323.105 167.429 323.014C165.364 323.014 163.346 323.629 161.63 324.781C159.913 325.933 158.575 327.57 157.785 329.486C156.995 331.402 156.788 333.51 157.191 335.543C157.594 337.577 158.588 339.445 160.048 340.911C161.508 342.378 163.368 343.376 165.392 343.781C167.417 344.185 169.516 343.978 171.423 343.184C173.331 342.391 174.961 341.047 176.108 339.323C177.255 337.599 177.867 335.572 177.867 333.498Z" fill="#C87E56"/>
</g>
<g style="mix-blend-mode:multiply" opacity="0.23">
<path d="M141.595 381.88C139.864 381.88 138.205 382.57 136.981 383.799C135.758 385.028 135.071 386.695 135.071 388.433C135.071 390.17 135.758 391.837 136.981 393.066C138.205 394.295 139.864 394.985 141.595 394.985C143.325 394.985 144.984 394.295 146.208 393.066C147.431 391.837 148.119 390.17 148.119 388.433C148.119 386.695 147.431 385.028 146.208 383.799C144.984 382.57 143.325 381.88 141.595 381.88Z" fill="#C87E56"/>
</g>
<g style="mix-blend-mode:multiply" opacity="0.23">
<path d="M116.387 283.068C117.493 283.079 118.578 282.758 119.503 282.148C120.428 281.538 121.152 280.666 121.583 279.642C122.014 278.618 122.132 277.489 121.922 276.397C121.713 275.306 121.185 274.301 120.406 273.512C119.627 272.722 118.632 272.183 117.548 271.962C116.463 271.741 115.337 271.849 114.314 272.272C113.29 272.695 112.415 273.414 111.799 274.337C111.183 275.261 110.854 276.347 110.854 277.459C110.868 278.934 111.453 280.345 112.486 281.392C113.519 282.44 114.919 283.041 116.387 283.068Z" fill="#C87E56"/>
</g>
<g style="mix-blend-mode:multiply" opacity="0.23">
<path d="M181.777 265.091C184.511 266.615 187.659 267.218 190.759 266.813C193.859 266.407 196.747 265.013 199.001 262.837C200.389 261.549 201.505 259.995 202.285 258.266C203.065 256.537 203.492 254.669 203.541 252.772C203.543 250.941 203.184 249.127 202.485 247.436C201.787 245.745 200.762 244.209 199.47 242.917C197.441 240.929 194.871 239.59 192.084 239.067C189.298 238.545 186.42 238.863 183.813 239.981C181.237 241.037 179.029 242.835 177.469 245.148C175.909 247.462 175.065 250.187 175.045 252.981C175.117 255.394 175.767 257.754 176.939 259.862C178.111 261.969 179.77 263.763 181.777 265.091Z" fill="#C87E56"/>
</g>
<g style="mix-blend-mode:multiply" opacity="0.23">
<path d="M147.909 224.041C150.45 224.051 152.938 223.304 155.056 221.893C157.174 220.482 158.828 218.472 159.808 216.117C160.788 213.761 161.049 211.167 160.56 208.662C160.07 206.157 158.852 203.854 157.058 202.045C155.265 200.237 152.977 199.003 150.485 198.501C147.993 198 145.409 198.252 143.06 199.226C140.711 200.201 138.702 201.854 137.289 203.975C135.876 206.097 135.122 208.593 135.122 211.145C135.149 214.548 136.503 217.804 138.894 220.215C141.284 222.626 144.521 224 147.909 224.041Z" fill="#C87E56"/>
</g>
<g style="mix-blend-mode:multiply" opacity="0.23">
<path d="M462.16 249.359C458.132 251.379 454.75 254.494 452.397 258.349C450.044 262.204 448.816 266.645 448.851 271.166C447.291 270.175 445.477 269.665 443.631 269.698C441.084 269.698 438.642 270.715 436.841 272.523C435.04 274.332 434.028 276.786 434.028 279.344C434.028 281.902 435.04 284.355 436.841 286.164C438.642 287.973 441.084 288.989 443.631 288.989C445.255 289.064 446.867 288.675 448.28 287.868C449.693 287.061 450.85 285.868 451.617 284.429C453.535 288.307 456.523 291.55 460.224 293.771C463.925 295.992 468.184 297.098 472.494 296.957C500.416 296.957 503.809 258.9 482.932 249.359C498.224 240.133 494.727 210.83 472.494 210.83C450.26 210.83 446.867 240.133 462.16 249.359Z" fill="#C87E56"/>
</g>
<g style="mix-blend-mode:multiply" opacity="0.23">
<path d="M455.424 207.164C456.886 207.025 458.244 206.344 459.232 205.254C460.22 204.163 460.768 202.741 460.768 201.267C460.768 199.792 460.22 198.37 459.232 197.28C458.244 196.189 456.886 195.508 455.424 195.369C453.962 195.508 452.605 196.189 451.616 197.28C450.628 198.37 450.081 199.792 450.081 201.267C450.081 202.741 450.628 204.163 451.616 205.254C452.605 206.344 453.962 207.025 455.424 207.164Z" fill="#C87E56"/>
</g>
<g style="mix-blend-mode:multiply" opacity="0.23">
<path d="M398.482 302.783C398.482 305.375 399.247 307.909 400.681 310.064C402.115 312.219 404.153 313.899 406.537 314.891C408.921 315.883 411.545 316.143 414.076 315.637C416.607 315.131 418.932 313.883 420.756 312.05C422.581 310.217 423.824 307.882 424.327 305.34C424.831 302.798 424.572 300.163 423.585 297.768C422.597 295.374 420.925 293.327 418.779 291.887C416.633 290.447 414.111 289.678 411.53 289.678C408.09 289.745 404.81 291.148 402.378 293.591C399.945 296.034 398.549 299.329 398.482 302.783Z" fill="#C87E56"/>
</g>
<g style="mix-blend-mode:multiply" opacity="0.23">
<path d="M288.619 446.044C313.619 446.044 313.671 407.095 288.619 407.095C263.567 407.095 263.619 446.044 288.619 446.044Z" fill="#C87E56"/>
</g>
<g style="mix-blend-mode:multiply" opacity="0.23">
<path d="M342.95 448.612C357.825 448.612 357.877 425.337 342.95 425.337C328.023 425.337 327.971 448.612 342.95 448.612Z" fill="#C87E56"/>
</g>
<g style="mix-blend-mode:multiply" opacity="0.23">
<path d="M374.997 442.376C360.279 442.376 360.279 465.284 374.997 465.284C389.715 465.284 389.715 442.376 374.997 442.376Z" fill="#C87E56"/>
</g>
<g style="mix-blend-mode:multiply" opacity="0.23">
<path d="M233.868 399.128C212.626 399.128 212.626 432.205 233.868 432.205C255.11 432.205 255.11 399.128 233.868 399.128Z" fill="#C87E56"/>
</g>
<g style="mix-blend-mode:multiply" opacity="0.23">
<path d="M359.602 335.959C354.682 335.962 349.946 337.835 346.345 341.202C342.839 344.738 340.871 349.526 340.871 354.516C340.871 359.507 342.839 364.295 346.345 367.831C349.957 371.181 354.686 373.051 359.602 373.073C362.064 373.08 364.504 372.598 366.78 371.655C369.056 370.712 371.125 369.326 372.866 367.577C374.607 365.828 375.987 363.751 376.926 361.464C377.865 359.178 378.345 356.728 378.338 354.254C378.407 349.3 376.532 344.517 373.119 340.939C369.41 337.61 364.575 335.829 359.602 335.959Z" fill="#C87E56"/>
</g>
<g style="mix-blend-mode:multiply" opacity="0.23">
<path d="M308.245 392.42C308.291 399.139 310.951 405.573 315.656 410.348C318.007 412.71 320.797 414.583 323.869 415.861C326.941 417.14 330.233 417.797 333.558 417.797C336.883 417.797 340.175 417.14 343.247 415.861C346.318 414.583 349.109 412.71 351.46 410.348C355.945 405.429 358.568 399.084 358.871 392.42C358.789 385.694 356.136 379.256 351.46 374.44C346.692 369.708 340.26 367.055 333.558 367.055C326.856 367.055 320.423 369.708 315.656 374.44C313.256 376.678 311.46 379.492 310.437 382.617C308.873 385.639 308.118 389.017 308.245 392.42Z" fill="#C87E56"/>
</g>
<g style="mix-blend-mode:multiply" opacity="0.23">
<path d="M362.158 406.365C347.701 406.365 347.649 428.958 362.158 428.958C376.668 428.958 376.72 406.365 362.158 406.365Z" fill="#C87E56"/>
</g>
</g>
</g>
<g style="mix-blend-mode:multiply" opacity="0.6">
<path d="M430.791 170.837C453.366 209.755 461.017 255.612 452.305 299.795C443.593 343.978 419.118 383.445 383.479 410.783C347.839 438.121 303.488 451.447 258.756 448.259C214.024 445.071 171.991 425.588 140.552 393.469C153.661 416.185 171.437 435.836 192.697 451.114C213.956 466.392 238.212 476.948 263.849 482.077C289.487 487.207 315.918 486.793 341.384 480.864C366.85 474.935 390.766 463.626 411.542 447.69C432.317 431.754 449.475 411.556 461.873 388.441C474.272 365.326 481.626 339.824 483.447 313.632C485.268 287.44 481.514 261.159 472.435 236.537C463.356 211.916 449.16 189.519 430.791 170.837Z" fill="#DDC3A3"/>
</g>
<g style="mix-blend-mode:multiply" opacity="0.25">
<path d="M418.789 159.674C434.305 198.006 436.57 240.458 425.221 280.236C413.872 320.014 389.566 354.818 356.193 379.08C322.819 403.341 282.307 415.656 241.14 414.055C199.973 412.454 160.53 397.03 129.124 370.249C139.633 396.211 155.88 419.433 176.637 438.162C197.395 456.89 222.12 470.633 248.943 478.353C275.766 486.073 303.986 487.568 331.469 482.724C358.952 477.88 384.979 466.824 407.582 450.392C430.185 433.96 448.774 412.583 461.942 387.875C475.111 363.167 482.515 335.776 483.594 307.771C484.674 279.767 479.401 251.883 468.174 226.226C456.947 200.57 440.06 177.812 418.789 159.674Z" fill="#DDC3A3"/>
</g>
<g style="mix-blend-mode:screen" opacity="0.27">
<path d="M454.071 199.566C437.445 173.931 414.738 152.847 387.991 138.207C361.245 123.567 331.296 115.83 300.836 115.692H299.844C297.026 115.692 294.207 115.692 291.441 115.692H289.249C286.639 115.692 284.03 116.059 281.472 116.321H280.898C278.184 116.321 275.679 116.95 272.809 117.317L270.616 117.684L263.675 118.89L262.475 119.152C259.917 119.676 257.255 120.253 254.855 120.882L252.506 121.511C250.47 122.088 248.487 122.612 246.504 123.241L244.677 123.765L237.631 126.176L234.969 127.172L229.646 129.479L227.141 130.527C225.053 131.418 222.913 132.362 220.825 133.358L217.798 134.878L213.884 136.87L210.857 138.495L205.429 141.536L201.984 143.633L199.114 145.467C196.661 147.092 194.207 148.77 191.807 150.709L190.763 151.443L186.953 154.326L185.126 155.794C180.951 159.097 176.932 162.609 173.07 166.278L172.026 167.274C168.007 171.154 164.145 175.242 160.439 179.488L160.022 180.065C156.212 184.468 152.611 189.082 149.218 193.852C126.782 225.736 114.985 263.941 115.519 302.98C116.054 342.02 128.893 379.884 152.193 411.137C133.88 382.989 123.578 350.348 122.401 316.744C121.223 283.14 129.215 249.853 145.512 220.482C158.612 240.721 178.965 255.118 202.351 260.687C225.737 266.256 250.359 262.569 271.111 250.391C291.862 238.213 307.15 218.479 313.802 195.283C320.454 172.087 317.96 147.208 306.838 125.809C335.397 125.771 363.572 132.416 389.129 145.219C414.686 158.022 436.921 176.629 454.071 199.566Z" fill="#DDC3A3"/>
</g>
<g style="mix-blend-mode:screen" opacity="0.68">
<path d="M449.895 193.957C477.58 234.352 488.153 284.138 479.29 332.363C470.428 380.588 442.854 423.302 402.636 451.108C362.417 478.913 312.848 489.534 264.834 480.632C216.819 471.73 174.292 444.035 146.608 403.641C160.316 423.642 177.812 440.736 198.097 453.946C218.382 467.156 241.06 476.224 264.834 480.632C288.608 485.04 313.014 484.701 336.658 479.635C360.302 474.569 382.721 464.876 402.636 451.108C422.55 437.34 439.569 419.767 452.721 399.393C465.874 379.018 474.902 356.242 479.29 332.363C483.679 308.484 483.342 283.971 478.298 260.224C473.255 236.476 463.603 213.958 449.895 193.957Z" fill="#DDC3A3"/>
</g>
<g style="mix-blend-mode:overlay" opacity="0.46">
<path d="M115.71 291.092C137.87 322.898 171.486 344.791 209.439 352.136C247.391 359.48 286.7 351.699 319.04 330.44C351.379 309.181 374.21 276.113 382.697 238.241C391.185 200.368 384.661 160.664 364.509 127.538C337.394 117.292 308.255 113.614 279.459 116.803C250.663 119.992 223.022 129.959 198.782 145.894C174.542 161.829 154.386 183.282 139.952 208.511C125.517 233.74 117.212 262.033 115.71 291.092Z" fill="#DDC3A3"/>
</g>
<path style="mix-blend-mode:color-dodge" opacity="0.68" d="M252.138 285.482C296.212 285.482 331.94 249.644 331.94 205.435C331.94 161.226 296.212 125.388 252.138 125.388C208.065 125.388 172.337 161.226 172.337 205.435C172.337 249.644 208.065 285.482 252.138 285.482Z" fill="url(#paint2_radial_3_6135)"/>
<g style="mix-blend-mode:multiply" opacity="0.42">
<g style="mix-blend-mode:multiply" opacity="0.42">
<path style="mix-blend-mode:multiply" opacity="0.42" d="M312.476 228.08C323.854 260.843 355.43 257.96 352.821 291.771C350.211 325.583 334.658 361.386 365.764 370.402C396.871 379.419 428.395 379.366 462.372 354.676C469.052 349.801 475.68 339.474 481.996 325.949C483.167 317.49 483.76 308.961 483.77 300.42C483.765 258.38 469.483 217.598 443.283 184.811C417.083 152.025 380.533 129.195 339.668 120.092C319.053 154.166 303.499 202.236 312.476 228.08Z" fill="url(#paint3_linear_3_6135)"/>
</g>
<g style="mix-blend-mode:multiply" opacity="0.42">
<path style="mix-blend-mode:multiply" opacity="0.42" d="M307.938 412.338C294.368 355.829 227.145 341.413 190.924 348.909C161.383 355.042 136.435 334.074 115.924 312.634C118.224 347.313 130.207 380.64 150.499 408.793C170.792 436.946 198.572 458.786 230.655 471.809C262.739 484.832 297.826 488.511 331.896 482.425C365.966 476.338 397.638 460.732 423.282 437.396C382.886 445.049 317.02 451.13 307.938 412.338Z" fill="url(#paint4_linear_3_6135)"/>
</g>
</g>
<path style="mix-blend-mode:screen" opacity="0.49" d="M467.379 223.525C468.395 266.291 454.63 308.09 428.427 341.814C402.224 375.539 365.199 399.106 323.65 408.509C282.1 417.912 238.59 412.57 200.519 393.391C162.448 374.212 132.166 342.38 114.823 303.309C115.511 330.662 122.23 357.521 134.496 381.953C146.762 406.384 164.269 427.779 185.757 444.597C207.246 461.415 232.18 473.238 258.764 479.214C285.349 485.19 312.922 485.17 339.498 479.155C366.074 473.141 390.991 461.282 412.455 444.433C433.919 427.584 451.396 406.163 463.627 381.714C475.857 357.266 482.538 330.397 483.187 303.043C483.836 275.689 478.437 248.531 467.379 223.525Z" fill="url(#paint5_linear_3_6135)"/>
<path style="mix-blend-mode:screen" opacity="0.49" d="M374.267 130.371C403.414 161.465 420.948 201.733 423.893 244.336C426.838 286.94 415.012 329.255 390.423 364.096C365.834 398.937 329.998 424.157 288.998 435.474C247.999 446.791 204.363 443.509 165.5 426.183C184.182 446.17 207.055 461.736 232.462 471.757C257.869 481.777 285.176 485.999 312.407 484.12C339.639 482.24 366.114 474.305 389.918 460.888C413.721 447.472 434.258 428.909 450.043 406.542C465.828 384.176 476.466 358.566 481.188 331.564C485.91 304.561 484.597 276.843 477.346 250.413C470.094 223.982 457.084 199.502 439.257 178.741C421.43 157.98 399.231 141.459 374.267 130.371Z" fill="url(#paint6_linear_3_6135)"/>
<defs>
<radialGradient id="paint0_radial_3_6135" cx="0" cy="0" r="1" gradientUnits="userSpaceOnUse" gradientTransform="translate(299.164 300.477) scale(299.164 300.477)">
<stop stop-color="#ACFFFB"/>
<stop offset="0.17" stop-color="#7FBDBA"/>
<stop offset="0.33" stop-color="#588381"/>
<stop offset="0.49" stop-color="#395453"/>
<stop offset="0.64" stop-color="#20302F"/>
<stop offset="0.78" stop-color="#0E1515"/>
<stop offset="0.9" stop-color="#040605"/>
<stop offset="1"/>
</radialGradient>
<linearGradient id="paint1_linear_3_6135" x1="169.47" y1="169.739" x2="430.943" y2="430.07" gradientUnits="userSpaceOnUse">
<stop stop-color="#FF0000"/>
<stop offset="1" stop-color="#957635"/>
</linearGradient>
<radialGradient id="paint2_radial_3_6135" cx="0" cy="0" r="1" gradientUnits="userSpaceOnUse" gradientTransform="translate(251.878 205.435) scale(79.6971 80.0467)">
<stop stop-color="#ECECEC"/>
<stop offset="0.47" stop-color="#F1F1F1"/>
<stop offset="1" stop-color="white"/>
</radialGradient>
<linearGradient id="paint3_linear_3_6135" x1="309.867" y1="248.104" x2="483.77" y2="248.104" gradientUnits="userSpaceOnUse">
<stop stop-color="#FF0000"/>
<stop offset="1" stop-color="#957635"/>
</linearGradient>
<linearGradient id="paint4_linear_3_6135" x1="115.924" y1="398.919" x2="423.282" y2="398.919" gradientUnits="userSpaceOnUse">
<stop stop-color="#FF0000"/>
<stop offset="1" stop-color="#957635"/>
</linearGradient>
<linearGradient id="paint5_linear_3_6135" x1="281.932" y1="226.388" x2="342.943" y2="479.682" gradientUnits="userSpaceOnUse">
<stop offset="0.24" stop-color="white"/>
<stop offset="0.92" stop-color="white"/>
<stop offset="1" stop-color="white"/>
</linearGradient>
<linearGradient id="paint6_linear_3_6135" x1="237.807" y1="256.71" x2="451.274" y2="403.058" gradientUnits="userSpaceOnUse">
<stop offset="0.24" stop-color="white"/>
<stop offset="0.92" stop-color="white"/>
<stop offset="1" stop-color="white"/>
</linearGradient>
</defs>
</svg>
