<svg width="624" height="628" viewBox="0 0 624 628" fill="none" xmlns="http://www.w3.org/2000/svg">
<path d="M316.155 506.828C422.818 506.828 509.286 420.498 509.286 314.004C509.286 207.51 422.818 121.18 316.155 121.18C209.491 121.18 123.023 207.51 123.023 314.004C123.023 420.498 209.491 506.828 316.155 506.828Z" fill="#005DC6"/>
<path opacity="0.63" d="M316.154 121.066C309.98 121.066 303.917 121.397 297.91 121.947C294.933 122.222 287.327 147.701 286.225 151.058C280.294 167.299 277.073 184.402 276.689 201.685C276.469 210.054 278.332 218.346 282.113 225.819C285.893 233.291 291.473 239.71 298.351 244.498C311.358 253.193 325.909 251.927 341.287 251.982C361.846 251.982 382.515 248.35 402.798 251.597C418.653 254.095 434.004 259.111 448.27 266.455C465.598 275.312 479.907 289.101 489.388 306.077C494.566 316.626 497.512 328.128 498.041 339.865C498.537 345.753 498.702 351.641 499.088 357.474C500.099 361.754 500.69 366.122 500.852 370.516C509.715 341.673 511.677 311.156 506.581 281.418C501.485 251.679 489.472 223.549 471.509 199.288C453.546 175.028 430.132 155.312 403.151 141.727C376.169 128.142 346.372 121.065 316.154 121.066V121.066Z" fill="#247EE2"/>
<path opacity="0.63" d="M127.268 354.171C135.849 394.699 157.29 431.385 188.407 458.785C219.523 486.184 258.659 502.838 300.006 506.274C310.147 507.154 292.951 449.043 290.195 443.76C273.329 411.898 243.951 389.28 221.904 361.215C214.933 353.418 210.916 343.43 210.55 332.985C211.818 289.732 290.966 311.303 288.211 265.628C287.208 255.749 282.359 246.658 274.707 240.315C259.439 227.053 239.432 221.77 220.857 215.056C212.074 212.202 203.714 208.186 195.999 203.115C193.739 201.519 173.181 184.294 175.771 181.543C154.272 204.234 138.624 231.805 130.174 261.879C121.724 291.953 120.727 323.627 127.268 354.171V354.171Z" fill="#247EE2"/>
<path opacity="0.47" d="M232.874 336.726C233.259 349.383 248.362 358.738 259.33 362.15C261.124 362.809 263.041 363.066 264.946 362.905C266.85 362.743 268.696 362.166 270.353 361.214C276.196 357.307 274.377 350.979 274.708 345.201C275.038 339.423 277.188 331.003 273.55 325.775C265.668 314.439 237.944 317.245 233.535 330.728C232.947 332.67 232.723 334.703 232.874 336.726V336.726Z" fill="#154B86"/>
<path opacity="0.63" d="M187.398 170.594C193.363 176.748 201.046 180.966 209.445 182.7C217.162 184.516 226.752 184.296 231.492 177.803C236.232 171.309 233.587 163.22 236.618 156.506C238.375 153.475 240.758 150.852 243.609 148.811C246.46 146.771 249.714 145.361 253.153 144.675C259.973 143.314 266.587 141.075 272.83 138.016C278.035 134.819 281.939 129.887 283.854 124.094C247.95 130.193 214.509 146.314 187.398 170.594V170.594Z" fill="#247EE2"/>
<path opacity="0.25" d="M419.224 279.828C415.518 279.864 411.826 280.269 408.201 281.039C396.846 283.57 380.201 293.365 390.177 307.398C394.392 312.345 400 315.912 406.272 317.634C412.535 319.312 418.313 322.442 423.137 326.769C431.074 335.188 429.862 348.78 424.791 359.401C419.72 370.022 411.618 378.497 406.327 388.787C401.035 399.078 399.106 412.615 406.327 421.805C410.119 425.74 415.052 428.389 420.431 429.376C425.811 430.363 431.365 429.64 436.311 427.308C446.127 422.404 454.304 414.757 459.846 405.296C472.248 387.544 478.869 366.407 478.806 344.763C478.645 334.056 476.028 323.528 471.155 313.988C466.281 304.448 459.283 296.151 450.696 289.734C441.44 283.351 430.473 279.899 419.224 279.828V279.828Z" fill="#154B86"/>
<path opacity="0.47" d="M215.896 378.277C207.393 372 199.561 364.863 192.526 356.981C189.018 353.024 186.425 348.345 184.93 343.277C183.434 338.208 183.073 332.873 183.872 327.65C187.4 311.636 204.266 303.161 218.155 294.632C224.455 291.037 229.862 286.072 233.974 280.104C235.973 277.082 237.134 273.585 237.337 269.969C237.54 266.354 236.779 262.749 235.132 259.523C230.226 251.378 219.478 249.562 210.384 246.756C200.601 243.598 191.548 238.52 183.758 231.819C175.969 225.119 169.598 216.932 165.022 207.74C163.67 204.803 162.493 201.789 161.495 198.715C142.858 223.564 130.513 252.543 125.512 283.182C120.511 313.822 123.002 345.214 132.772 374.685C142.543 404.156 159.304 430.833 181.628 452.442C203.951 474.051 231.176 489.953 260.982 498.792C264.423 493.113 267.005 486.956 268.643 480.522C270.456 470.77 269.87 460.723 266.934 451.247C259.053 422.191 239.155 397.537 215.896 378.277Z" fill="#368BEA"/>
<path opacity="0.47" d="M320.122 121.066C316.209 128.881 313.177 137.245 311.193 142.033C304.331 158.565 299.644 175.916 297.249 193.651C295.904 200.411 296.321 207.404 298.461 213.957C300.353 217.85 303.1 221.267 306.497 223.953C309.894 226.64 313.854 228.527 318.083 229.475C326.553 231.327 335.28 231.699 343.878 230.576C362.838 229.035 381.744 226.173 400.759 226.228C419.912 225.556 438.909 229.881 455.876 238.775C469.947 247.533 481.915 259.275 490.931 273.169C498.04 283.412 504.166 294.301 509.23 305.691C507.202 256.655 486.502 210.241 451.356 175.928C416.21 141.615 369.27 121.992 320.122 121.066V121.066Z" fill="#368BEA"/>
<path opacity="0.47" d="M425.342 316.037C438.184 326.273 441.05 345.258 437.082 361.217C433.94 374.149 426.995 386.475 427.105 399.738C427.003 401.204 427.308 402.671 427.987 403.975C430.027 407.277 435.042 406.616 438.57 405.021C456.152 396.986 465.081 376.515 465.633 357.2C466.363 342.284 462.053 327.555 453.396 315.377C449.545 309.992 444.618 305.461 438.926 302.071C433.235 298.68 426.902 296.503 420.326 295.676C414.814 295.401 411.011 297.107 412.389 303.435C413.767 309.764 420.932 312.57 425.342 316.037Z" fill="#368BEA"/>
<g opacity="0.32">
<path opacity="0.32" d="M398.608 340.305C397.892 353.512 384.719 357.199 379.979 367.82C377.664 373.323 379.979 381.412 387.364 380.697C405.829 378.936 421.427 355.603 414.923 338.104C414.363 336.165 413.125 334.491 411.433 333.387C409.741 332.283 407.709 331.823 405.705 332.09C403.702 332.356 401.861 333.332 400.518 334.84C399.175 336.348 398.419 338.288 398.388 340.305H398.608Z" fill="#368BEA"/>
</g>
<g opacity="0.32">
<path opacity="0.32" d="M378.656 393.517C366.255 404.523 366.751 425.6 375.129 438.917C382.239 450.363 399.491 463.185 412.002 452.234C413.405 450.744 414.186 448.776 414.186 446.731C414.186 444.686 413.405 442.718 412.002 441.228C406.16 434.735 396.845 434.735 392.27 425.82C387.696 416.905 389.68 405.789 387.751 395.883C387.477 394.983 386.976 394.167 386.296 393.515C385.616 392.863 384.779 392.396 383.867 392.158C382.955 391.921 381.996 391.921 381.084 392.159C380.172 392.397 379.336 392.865 378.656 393.517V393.517Z" fill="#368BEA"/>
</g>
<g opacity="0.32">
<path opacity="0.32" d="M349.884 410.52C348.177 411.917 347.009 413.862 346.577 416.023C345.144 423.067 345.585 435.284 353.743 438.035C354.769 438.344 355.87 438.301 356.87 437.912C357.869 437.523 358.708 436.811 359.254 435.889C362.782 430.386 360.026 424.388 359.254 418.665C358.703 414.758 358.813 408.154 352.695 409.365C351.68 409.521 350.716 409.917 349.884 410.52V410.52Z" fill="#368BEA"/>
</g>
<g opacity="0.47">
<path opacity="0.47" d="M254.311 161.952C251.054 165.012 248.756 168.95 247.697 173.288C245.934 186.826 244.335 191.834 229.949 193.815C229.229 193.993 228.551 194.314 227.958 194.76C227.365 195.206 226.868 195.767 226.497 196.41C226.127 197.052 225.89 197.763 225.801 198.499C225.712 199.235 225.774 199.981 225.981 200.693C230.17 212.525 247.587 206.196 254.807 200.693C262.028 195.19 263.736 185.78 263.351 176.535C263.185 171.803 262.855 154.083 254.311 161.952Z" fill="#154B86"/>
</g>
<path opacity="0.47" d="M266.659 336.672C265.904 332.309 263.546 328.384 260.045 325.666C257.692 324.332 254.955 323.835 252.283 324.254C249.61 324.674 247.158 325.987 245.329 327.977C228.022 345.697 272.502 364.242 266.659 336.672Z" fill="#368BEA"/>
<g opacity="0.47">
<path opacity="0.47" d="M221.628 276.525C212.369 272.233 200.188 276.91 192.251 282.523C184.314 288.136 174.723 297.546 177.92 307.837C178.471 309.12 179.425 310.19 180.638 310.884C181.851 311.579 183.257 311.862 184.644 311.689C192.251 310.533 197.046 302.609 203.164 298.482C213.802 291.273 216.117 292.979 222.841 286.76C223.652 286.119 224.285 285.281 224.68 284.326C225.075 283.371 225.218 282.331 225.097 281.305C224.975 280.279 224.593 279.301 223.986 278.464C223.378 277.627 222.567 276.96 221.628 276.525V276.525Z" fill="#154B86"/>
</g>
<g opacity="0.47">
<path opacity="0.47" d="M161.55 329.409C152.345 349.99 164.141 372.332 180.786 385.43C192.967 395.005 204.211 401.333 212.754 414.76C221.297 428.188 222.069 443.926 231.439 456.363C231.98 457.251 232.74 457.985 233.648 458.495C234.555 459.005 235.579 459.272 236.62 459.272C237.661 459.272 238.685 459.005 239.592 458.495C240.5 457.985 241.26 457.251 241.801 456.363C255.305 436.497 240.203 408.817 225.762 393.629C216.55 384.868 206.139 377.457 194.841 371.617C177.81 361.437 174.282 347.734 168.715 330.07C167.778 327.153 163.204 325.832 161.55 329.134V329.409Z" fill="#154B86"/>
</g>
<g opacity="0.47">
<path opacity="0.47" d="M188.225 422.297C190.32 426.864 192.745 431.377 194.674 435.999C197.099 441.502 197.595 447.005 202.942 450.692C204.586 451.645 206.5 452.027 208.385 451.778C210.27 451.529 212.019 450.664 213.359 449.317C219.256 442.713 216.886 433.908 212.036 427.305C207.757 421.724 202.043 417.407 195.501 414.813C194.46 414.268 193.272 414.07 192.111 414.246C190.949 414.423 189.875 414.966 189.044 415.795C188.213 416.625 187.67 417.698 187.493 418.857C187.316 420.017 187.514 421.203 188.06 422.242L188.225 422.297Z" fill="#154B86"/>
</g>
<g opacity="0.47">
<path opacity="0.47" d="M335.058 140.875C329.934 144.174 325.574 148.526 322.271 153.642C317.251 159.831 313.725 167.091 311.967 174.858C310.208 182.626 310.264 190.694 312.129 198.437C313.591 203.115 316.147 207.379 319.587 210.875C323.027 214.372 327.251 217 331.91 218.544C336.569 220.087 341.529 220.501 346.379 219.751C351.23 219.001 355.833 217.108 359.806 214.23C360.729 213.451 361.435 212.446 361.854 211.314C362.273 210.182 362.391 208.96 362.197 207.769C362.002 206.578 361.502 205.457 360.745 204.516C359.988 203.574 359 202.845 357.876 202.399C354.417 200.833 350.65 200.063 346.853 200.142C343.118 200.186 339.441 199.216 336.215 197.336C334.549 196.013 333.192 194.343 332.24 192.442C331.288 190.541 330.763 188.455 330.704 186.33C329.601 173.288 337.207 160.081 343.932 149.515C344.457 148.472 344.694 147.308 344.617 146.143C344.541 144.978 344.153 143.854 343.496 142.889C342.838 141.923 341.934 141.151 340.877 140.652C339.819 140.153 338.648 139.945 337.483 140.05C336.639 140.208 335.823 140.486 335.058 140.875V140.875Z" fill="#005DC6"/>
</g>
<g opacity="0.47">
<path opacity="0.47" d="M356.995 161.676C355.071 162.097 353.255 162.911 351.662 164.066C350.068 165.221 348.731 166.694 347.735 168.39C346.43 170.953 345.961 173.861 346.396 176.703C346.831 179.546 348.148 182.181 350.16 184.238C355.231 188.586 365.318 186.66 365.814 179.066C365.814 179.946 365.483 180.827 365.262 181.707C366.53 176.094 366.585 159.915 356.995 161.676Z" fill="#005DC6"/>
</g>
<g style="mix-blend-mode:screen" opacity="0.38">
<g style="mix-blend-mode:screen" opacity="0.38">
<path d="M380.312 342.178C394.808 342.178 394.808 319.781 380.312 319.781C365.816 319.781 365.871 342.178 380.312 342.178Z" fill="#59A7FF"/>
</g>
<g style="mix-blend-mode:screen" opacity="0.38">
<path d="M357.878 359.348C359.559 359.348 361.171 358.682 362.36 357.495C363.548 356.308 364.216 354.698 364.216 353.02C364.216 351.341 363.548 349.732 362.36 348.545C361.171 347.358 359.559 346.691 357.878 346.691C356.197 346.691 354.584 347.358 353.396 348.545C352.207 349.732 351.539 351.341 351.539 353.02C351.539 354.698 352.207 356.308 353.396 357.495C354.584 358.682 356.197 359.348 357.878 359.348Z" fill="#59A7FF"/>
</g>
<g style="mix-blend-mode:screen" opacity="0.38">
<path d="M346.581 387.797C348.068 387.654 349.449 386.964 350.453 385.86C351.458 384.756 352.014 383.318 352.014 381.826C352.014 380.335 351.458 378.897 350.453 377.793C349.449 376.689 348.068 375.998 346.581 375.855C345.094 375.998 343.714 376.689 342.71 377.793C341.705 378.897 341.148 380.335 341.148 381.826C341.148 383.318 341.705 384.756 342.71 385.86C343.714 386.964 345.094 387.654 346.581 387.797V387.797Z" fill="#59A7FF"/>
</g>
<g style="mix-blend-mode:screen" opacity="0.38">
<path d="M322.217 402.487C322.948 402.487 323.649 402.197 324.165 401.681C324.682 401.165 324.973 400.466 324.973 399.736C324.973 399.006 324.682 398.306 324.165 397.79C323.649 397.274 322.948 396.984 322.217 396.984C321.486 396.984 320.785 397.274 320.268 397.79C319.751 398.306 319.461 399.006 319.461 399.736C319.461 400.466 319.751 401.165 320.268 401.681C320.785 402.197 321.486 402.487 322.217 402.487Z" fill="#59A7FF"/>
</g>
<g style="mix-blend-mode:screen" opacity="0.38">
<path d="M378.217 480.962C380.41 480.962 382.512 480.092 384.063 478.544C385.613 476.996 386.484 474.897 386.484 472.708C386.484 470.518 385.613 468.419 384.063 466.871C382.512 465.323 380.41 464.453 378.217 464.453C376.024 464.453 373.921 465.323 372.371 466.871C370.82 468.419 369.949 470.518 369.949 472.708C369.949 474.897 370.82 476.996 372.371 478.544C373.921 480.092 376.024 480.962 378.217 480.962Z" fill="#59A7FF"/>
</g>
<g style="mix-blend-mode:screen" opacity="0.38">
<path d="M400.32 480.635C401.782 480.635 403.184 480.055 404.218 479.023C405.251 477.991 405.832 476.591 405.832 475.132C405.832 473.672 405.251 472.273 404.218 471.241C403.184 470.209 401.782 469.629 400.32 469.629C398.859 469.629 397.457 470.209 396.423 471.241C395.389 472.273 394.809 473.672 394.809 475.132C394.809 476.591 395.389 477.991 396.423 479.023C397.457 480.055 398.859 480.635 400.32 480.635Z" fill="#59A7FF"/>
</g>
<g style="mix-blend-mode:screen" opacity="0.38">
<path d="M353.357 491.198C353.848 491.117 354.293 490.866 354.615 490.488C354.937 490.11 355.113 489.63 355.113 489.134C355.113 488.638 354.937 488.158 354.615 487.78C354.293 487.402 353.848 487.151 353.357 487.07C352.867 487.151 352.421 487.402 352.1 487.78C351.778 488.158 351.602 488.638 351.602 489.134C351.602 489.63 351.778 490.11 352.1 490.488C352.421 490.866 352.867 491.117 353.357 491.198V491.198Z" fill="#59A7FF"/>
</g>
<g style="mix-blend-mode:screen" opacity="0.38">
<path d="M401.423 270.529C402.388 270.415 403.278 269.952 403.923 269.226C404.569 268.501 404.925 267.565 404.925 266.595C404.925 265.625 404.569 264.688 403.923 263.963C403.278 263.238 402.388 262.774 401.423 262.66C400.459 262.774 399.569 263.238 398.924 263.963C398.278 264.688 397.922 265.625 397.922 266.595C397.922 267.565 398.278 268.501 398.924 269.226C399.569 269.952 400.459 270.415 401.423 270.529Z" fill="#59A7FF"/>
</g>
<g style="mix-blend-mode:screen" opacity="0.38">
<path d="M419.556 271.847C420.799 271.847 421.99 271.354 422.869 270.477C423.747 269.6 424.241 268.41 424.241 267.17C424.241 265.929 423.747 264.739 422.869 263.862C421.99 262.985 420.799 262.492 419.556 262.492C418.314 262.492 417.122 262.985 416.243 263.862C415.365 264.739 414.871 265.929 414.871 267.17C414.871 268.41 415.365 269.6 416.243 270.477C417.122 271.354 418.314 271.847 419.556 271.847V271.847Z" fill="#59A7FF"/>
</g>
<g style="mix-blend-mode:screen" opacity="0.38">
<path d="M288.264 192.936C289.404 192.936 290.498 192.484 291.304 191.679C292.11 190.874 292.563 189.782 292.563 188.644C292.563 187.505 292.11 186.414 291.304 185.609C290.498 184.804 289.404 184.352 288.264 184.352C287.124 184.352 286.03 184.804 285.224 185.609C284.418 186.414 283.965 187.505 283.965 188.644C283.965 189.782 284.418 190.874 285.224 191.679C286.03 192.484 287.124 192.936 288.264 192.936Z" fill="#59A7FF"/>
</g>
<g style="mix-blend-mode:screen" opacity="0.38">
<path d="M285.455 209.718C286.697 209.718 287.889 209.226 288.767 208.348C289.646 207.471 290.139 206.281 290.139 205.041C290.139 203.8 289.646 202.611 288.767 201.733C287.889 200.856 286.697 200.363 285.455 200.363C284.212 200.363 283.02 200.856 282.142 201.733C281.263 202.611 280.77 203.8 280.77 205.041C280.77 206.281 281.263 207.471 282.142 208.348C283.02 209.226 284.212 209.718 285.455 209.718V209.718Z" fill="#59A7FF"/>
</g>
<g style="mix-blend-mode:screen" opacity="0.38">
<path d="M291.13 229.803C292.759 229.775 294.312 229.117 295.464 227.967C296.615 226.817 297.275 225.266 297.303 223.64C297.261 222.018 296.598 220.475 295.449 219.328C294.3 218.181 292.754 217.518 291.13 217.477C289.493 217.477 287.923 218.126 286.765 219.282C285.607 220.438 284.957 222.005 284.957 223.64C284.957 225.275 285.607 226.842 286.765 227.998C287.923 229.154 289.493 229.803 291.13 229.803Z" fill="#59A7FF"/>
</g>
<g style="mix-blend-mode:screen" opacity="0.38">
<path d="M308.22 228.597H307.944C306.916 227.605 305.543 227.051 304.113 227.051C302.684 227.051 301.31 227.605 300.283 228.597V228.597C299.477 229.407 298.93 230.436 298.71 231.556C298.49 232.676 298.607 233.836 299.046 234.889C299.485 235.943 300.227 236.843 301.178 237.476C302.129 238.109 303.246 238.447 304.389 238.447C305.532 238.447 306.649 238.109 307.6 237.476C308.551 236.843 309.293 235.943 309.732 234.889C310.171 233.836 310.288 232.676 310.068 231.556C309.848 230.436 309.301 229.407 308.495 228.597H308.22Z" fill="#59A7FF"/>
</g>
</g>
<path style="mix-blend-mode:multiply" opacity="0.51" d="M316.155 506.828C422.818 506.828 509.286 420.498 509.286 314.004C509.286 207.51 422.818 121.18 316.155 121.18C209.491 121.18 123.023 207.51 123.023 314.004C123.023 420.498 209.491 506.828 316.155 506.828Z" fill="url(#paint0_linear_137_3852)"/>
<g style="mix-blend-mode:multiply" opacity="0.07">
<path d="M316.155 506.828C342.918 506.473 369.313 500.562 393.664 489.47C418.014 478.378 439.786 462.349 457.595 442.401C475.405 422.454 488.862 399.024 497.111 373.603C505.36 348.182 508.221 321.325 505.511 294.74C502.801 268.155 494.58 242.424 481.37 219.183C468.161 195.942 450.252 175.7 428.783 159.743C407.313 143.787 382.753 132.466 356.664 126.499C330.575 120.533 303.528 120.052 277.243 125.087C312.234 128.96 345.63 141.793 374.194 162.342C387.009 171.534 398.619 182.293 408.753 194.369C425.288 214.07 438.13 237.788 440.39 263.376C442.65 288.965 432.894 316.425 411.839 331.228C385.603 349.663 344.982 347.737 328.171 375.252C317.974 391.761 320.896 413.773 311.636 431.272C300.612 452.569 274.597 461.099 251.007 465.281C234.548 468.341 217.797 469.541 201.07 468.858C234.322 493.584 274.695 506.904 316.155 506.828V506.828Z" fill="#005DC6"/>
</g>
<g style="mix-blend-mode:multiply" opacity="0.21">
<path d="M316.155 506.826C363.919 507.313 410.166 490.091 445.943 458.493C481.721 426.895 504.485 383.169 509.828 335.777C515.172 288.386 502.715 240.701 474.869 201.952C447.023 163.203 405.769 136.146 359.091 126.02C360.511 127.144 362.067 128.087 363.721 128.826C401.97 147.295 433.339 177.439 453.287 214.893C464.381 235.513 471.522 258.021 474.342 281.259C476.507 293.65 475.249 306.397 470.704 318.129C459.35 342.727 428.594 350.046 405.721 364.629C401.227 367.257 397.443 370.941 394.697 375.359C389.792 384.109 392.548 394.95 391.555 404.91C389.847 422.74 376.123 437.158 361.131 447.008C314.171 477.935 250.896 475.844 199.692 452.511C186.887 446.591 174.638 439.537 163.094 431.435C181.105 454.882 204.278 473.877 230.819 486.95C257.361 500.023 286.559 506.824 316.155 506.826V506.826Z" fill="#005DC6"/>
</g>
<g style="mix-blend-mode:overlay" opacity="0.28">
<path d="M316.154 121.454C265.854 121.34 217.513 140.912 181.501 175.973C145.488 211.033 124.672 258.789 123.519 308.995C122.584 350.38 134.819 390.994 158.463 424.998C151.628 396.658 145.786 367.437 149.699 338.601C153.613 309.766 169.211 280.985 195.447 268.273C228.076 252.369 267.816 264.476 302.815 254.681C322.658 249.178 341.398 236.466 362.012 239.382C367.459 240.66 372.982 241.598 378.547 242.189C381.379 242.428 384.218 241.804 386.688 240.399C389.158 238.994 391.143 236.874 392.381 234.32C395.027 226.781 387.751 219.297 387.531 211.317C387.531 199.706 401.09 193.323 412.664 192.112C435.296 189.863 458.004 195.565 476.876 208.236C459.946 182.92 437.325 161.905 410.817 146.867C384.31 131.828 354.649 123.182 324.201 121.619C321.555 121.509 318.855 121.454 316.154 121.454Z" fill="#70B2FF"/>
</g>
<g style="mix-blend-mode:screen" opacity="0.58">
<path d="M316.156 121.067C278.634 120.955 241.894 131.769 210.435 152.187C178.976 172.604 154.163 201.738 139.036 236.021C123.909 270.304 119.124 308.247 125.267 345.203C131.41 382.16 148.214 416.526 173.622 444.092C147.082 410.853 132.3 369.781 131.583 327.278C130.865 284.775 144.251 243.229 169.654 209.115C179.66 225.454 195.757 237.155 214.404 241.644C223.637 243.867 233.218 244.252 242.601 242.778C251.983 241.304 260.982 238 269.085 233.053C277.189 228.106 284.236 221.615 289.827 213.949C295.417 206.282 299.44 197.592 301.667 188.374C303.893 179.155 304.279 169.589 302.802 160.222C301.326 150.855 298.016 141.869 293.062 133.779C324.809 128.494 357.377 131.223 387.798 141.719C418.22 152.215 445.527 170.144 467.233 193.872C449.165 171.163 426.195 152.822 400.035 140.215C373.876 127.609 345.203 121.064 316.156 121.067V121.067Z" fill="#005DC6"/>
</g>
<path style="mix-blend-mode:screen" opacity="0.32" d="M491.482 233.105C492.569 277.937 478.068 321.761 450.447 357.124C422.825 392.487 383.787 417.205 339.973 427.076C296.158 436.947 250.271 431.361 210.116 411.268C169.961 391.174 138.016 357.814 119.715 316.861C120.371 345.598 127.412 373.831 140.329 399.52C153.246 425.209 171.718 447.713 194.408 465.406C217.099 483.098 243.442 495.538 271.535 501.827C299.628 508.115 328.769 508.095 356.854 501.768C384.938 495.441 411.264 482.965 433.93 465.241C456.596 447.517 475.036 424.988 487.918 399.281C500.8 373.574 507.802 345.331 508.418 316.593C509.034 287.855 503.25 259.339 491.482 233.105V233.105Z" fill="url(#paint1_linear_137_3852)"/>
<path style="mix-blend-mode:screen" opacity="0.32" d="M393.265 135.321C423.987 167.954 442.46 210.19 445.553 254.869C448.645 299.548 436.167 343.92 410.234 380.462C384.3 417.004 346.507 443.468 303.262 455.366C260.017 467.264 213.982 463.865 172.961 445.744C192.707 466.625 216.848 482.871 243.644 493.311C270.439 503.75 299.221 508.123 327.913 506.114C356.606 504.105 384.495 495.764 409.568 481.692C434.642 467.62 456.275 448.169 472.909 424.741C489.542 401.312 500.762 374.49 505.757 346.209C510.753 317.928 509.4 288.893 501.798 261.197C494.195 233.501 480.531 207.834 461.792 186.048C443.052 164.262 419.704 146.899 393.431 135.211L393.265 135.321Z" fill="url(#paint2_linear_137_3852)"/>
<path style="mix-blend-mode:overlay" opacity="0.43" d="M267.211 304.264C313.694 304.264 351.375 266.642 351.375 220.234C351.375 173.825 313.694 136.203 267.211 136.203C220.729 136.203 183.047 173.825 183.047 220.234C183.047 266.642 220.729 304.264 267.211 304.264Z" fill="url(#paint3_radial_137_3852)"/>
<path opacity="0.78" d="M137.795 382.682C136.747 380.646 135.865 378.5 134.928 376.409C55.1185 425.66 20.5598 457.137 16.5363 471.17C16.2744 471.993 16.2744 472.878 16.5363 473.701V474.197C16.8119 474.802 18.1347 475.297 18.6859 475.462C28.7172 478.764 80.5276 479.589 324.918 351.425C472.027 274.383 572.34 200.203 599.513 169.827C600.151 168.983 600.532 167.974 600.611 166.92C600.69 165.865 600.463 164.811 599.957 163.882C599.451 162.953 598.688 162.19 597.759 161.682C596.83 161.175 595.774 160.946 594.718 161.022C574.49 164.269 534.695 176.43 477.208 200.148C478.034 201.634 478.971 203.12 479.798 204.606C527.254 185.345 558.34 177.091 561.923 183.584C569.088 197.177 462.712 267.175 324.036 339.979C185.361 412.783 67.4648 460.659 60.2995 447.067C56.3862 439.638 86.7008 415.205 137.795 382.682Z" fill="url(#paint4_linear_137_3852)"/>
<defs>
<linearGradient id="paint0_linear_137_3852" x1="179.574" y1="177.64" x2="452.301" y2="450.802" gradientUnits="userSpaceOnUse">
<stop stop-color="white"/>
<stop offset="0.09" stop-color="#EBEBF6"/>
<stop offset="0.54" stop-color="#8B8FCE"/>
<stop offset="0.85" stop-color="#4F55B4"/>
<stop offset="1" stop-color="#383EAA"/>
</linearGradient>
<linearGradient id="paint1_linear_137_3852" x1="295.731" y1="236.122" x2="359.457" y2="502.143" gradientUnits="userSpaceOnUse">
<stop offset="0.24" stop-color="white"/>
<stop offset="0.92" stop-color="white"/>
<stop offset="1" stop-color="white"/>
</linearGradient>
<linearGradient id="paint2_linear_137_3852" x1="249.974" y1="265.058" x2="474.359" y2="419.779" gradientUnits="userSpaceOnUse">
<stop offset="0.24" stop-color="white"/>
<stop offset="0.39" stop-color="#FCFFFF"/>
<stop offset="0.5" stop-color="#F2FFFF"/>
<stop offset="0.6" stop-color="#E2FEFF"/>
<stop offset="0.7" stop-color="#CBFDFF"/>
<stop offset="0.78" stop-color="#AEFCFF"/>
<stop offset="0.87" stop-color="#8AFBFF"/>
<stop offset="0.95" stop-color="#5FF9FF"/>
<stop offset="1" stop-color="#40F8FF"/>
</linearGradient>
<radialGradient id="paint3_radial_137_3852" cx="0" cy="0" r="1" gradientUnits="userSpaceOnUse" gradientTransform="translate(267.211 220.234) scale(84.1643 84.0305)">
<stop stop-color="#ECECEC"/>
<stop offset="0.47" stop-color="#F1F1F1"/>
<stop offset="1" stop-color="white"/>
</radialGradient>
<linearGradient id="paint4_linear_137_3852" x1="12.316" y1="465.486" x2="606.432" y2="176.282" gradientUnits="userSpaceOnUse">
<stop stop-color="#77EDF6"/>
<stop offset="0.16" stop-color="#6BE1F0"/>
<stop offset="0.44" stop-color="#4CC0E1"/>
<stop offset="0.82" stop-color="#1A8CC8"/>
<stop offset="0.99" stop-color="#0071BB"/>
</linearGradient>
</defs>
</svg>
