<svg width="255" height="140" viewBox="0 0 255 140" fill="none" xmlns="http://www.w3.org/2000/svg">
<rect width="255" height="140" fill="#00886F"/>
<g opacity="0.5" clip-path="url(#clip0_32467_575503)">
<path d="M115.2 75.165C114.684 75.2005 114.17 75.0797 113.724 74.8184C113.278 74.557 112.921 74.1673 112.7 73.7C112.175 72.4835 111.936 71.1632 112 69.84C111.941 68.5185 112.198 67.202 112.75 66C112.975 65.5442 113.328 65.1641 113.766 64.9065C114.204 64.6488 114.707 64.5249 115.215 64.55C115.525 64.5306 115.836 64.5766 116.127 64.6852C116.418 64.7937 116.683 64.9623 116.905 65.18C117.318 65.6628 117.597 66.2455 117.715 66.87H122.83C122.742 65.8762 122.453 64.9106 121.981 64.0321C121.508 63.1536 120.861 62.3805 120.08 61.76C118.657 60.7565 116.94 60.2551 115.2 60.335C112.55 60.335 110.44 61.21 108.925 62.935C107.41 64.66 106.645 67.035 106.645 69.99C106.645 72.945 107.38 75.235 108.835 76.9C110.29 78.565 112.39 79.4 115.09 79.4C117.29 79.4 119.055 78.84 120.345 77.735C121.635 76.63 122.435 75.1 122.845 73.04H117.845C117.696 73.6289 117.39 74.1663 116.96 74.595C116.47 75.0067 115.839 75.2112 115.2 75.165V75.165Z" fill="white"/>
<path d="M154.05 78.405L153.35 74.565C152.936 74.6823 152.515 74.7758 152.09 74.845C151.604 74.9218 151.112 74.9586 150.62 74.955C149.12 74.955 148.39 74.15 148.39 72.56V65H153.615V60.915H148.39V56.595H143.135V72.415C143.121 73.6218 143.289 74.8238 143.635 75.98C143.932 76.96 144.566 77.8032 145.425 78.36C146.29 78.93 147.545 79.215 149.165 79.215C150.041 79.2231 150.916 79.1528 151.78 79.005C152.551 78.8612 153.309 78.6606 154.05 78.405Z" fill="white"/>
<path d="M156.5 64.355V78.855H161.795V60.915H159.94C159.028 60.9163 158.154 61.2792 157.509 61.924C156.864 62.5688 156.501 63.443 156.5 64.355V64.355Z" fill="white"/>
<path d="M176.805 60.915L173.04 73.905L169.365 60.915H163.695L170.145 78.87H175.81L182.275 60.915H176.805Z" fill="white"/>
<path d="M128.56 60.885H123.06L130.2 77.175C130.2 77.175 129.895 78.175 129.75 78.605C129.685 78.8855 129.519 79.1325 129.285 79.3L129.155 79.415C128.717 79.7697 128.163 79.948 127.6 79.915C127.311 79.9143 127.022 79.8942 126.735 79.855C126.368 79.7954 126.004 79.717 125.645 79.62L124.84 83.375C126.003 83.7798 127.228 83.9795 128.46 83.965C129.433 84.0069 130.399 83.784 131.255 83.32C132.022 82.8351 132.656 82.1666 133.1 81.375C134.055 79.775 140.915 62.01 141.355 60.875H136.025L132.5 71.955L128.56 60.885Z" fill="white"/>
<path d="M194.66 62.59L194.585 62.485C194.061 61.7279 193.325 61.1418 192.47 60.8C191.786 60.4955 191.043 60.3452 190.295 60.36C190.17 60.36 190.045 60.36 189.91 60.36C187.909 60.4907 186.041 61.4052 184.71 62.905C183.21 64.63 182.43 67.005 182.43 69.96C182.43 72.915 183.17 75.205 184.62 76.87C185.316 77.6721 186.189 78.3019 187.17 78.71C187.91 79.0507 188.711 79.2411 189.525 79.27C190.025 79.27 190.755 79.185 190.76 79.185C192.293 78.9236 193.664 78.0775 194.585 76.825L194.66 76.725V78.86H199.95V60.915H194.66V62.59ZM194.97 70.3C194.979 71.0307 194.897 71.7597 194.725 72.47C194.559 73.1125 194.243 73.7068 193.805 74.205C193.512 74.5403 193.153 74.811 192.75 75C192.296 75.1954 191.804 75.2893 191.31 75.275C190.822 75.276 190.34 75.1653 189.902 74.9512C189.463 74.7371 189.079 74.4254 188.78 74.04C188.095 73.22 187.745 71.845 187.745 69.945C187.745 68.045 188.09 66.735 188.745 65.875C189.05 65.4628 189.449 65.1297 189.909 64.9035C190.37 64.6773 190.877 64.5647 191.39 64.575C191.833 64.5584 192.275 64.6393 192.684 64.8121C193.092 64.9849 193.458 65.2453 193.755 65.575C194.156 66.0509 194.456 66.6039 194.635 67.2C194.867 68.0124 194.975 68.8553 194.955 69.7L194.97 70.3Z" fill="white"/>
<path d="M159.15 53.385C158.549 53.384 157.96 53.5615 157.46 53.8949C156.959 54.2284 156.569 54.7028 156.338 55.2582C156.107 55.8136 156.046 56.425 156.163 57.015C156.28 57.605 156.569 58.1472 156.994 58.5728C157.419 58.9985 157.96 59.2885 158.55 59.4062C159.14 59.5239 159.751 59.464 160.307 59.2341C160.863 59.0041 161.338 58.6145 161.672 58.1145C162.007 57.6144 162.185 57.0265 162.185 56.425C162.185 55.6196 161.865 54.8471 161.296 54.2772C160.727 53.7072 159.955 53.3863 159.15 53.385V53.385Z" fill="white"/>
<path d="M55.95 69.785C55.9498 73.6248 57.0517 77.384 59.1248 80.6161C61.1979 83.8482 64.155 86.4175 67.6451 88.0186C71.1351 89.6198 75.0114 90.1857 78.8135 89.6491C82.6157 89.1124 86.1839 87.4958 89.0944 84.9912C92.005 82.4866 94.1355 79.1993 95.2331 75.5197C96.3306 71.8401 96.349 67.9227 95.2861 64.233C94.2232 60.5432 92.1236 57.236 89.2367 54.7042C86.3498 52.1724 82.7969 50.5223 79 49.95C79 49.95 79 76.3 79 76.4C79 80.565 75.87 84.5 71.705 84.5C67.54 84.5 64.105 81.44 64.105 77.69C64.081 76.6838 64.2609 75.6831 64.6338 74.7481C65.0067 73.8132 65.565 72.9635 66.275 72.25C68.275 70.28 72.2 68.305 74.325 65.515C75.68 63.745 76.045 62.58 76.045 60.705C76.0589 59.7142 75.8774 58.7303 75.511 57.8096C75.1446 56.8888 74.6004 56.0493 73.9096 55.3389C73.2187 54.6285 72.3946 54.0612 71.4844 53.6693C70.5743 53.2775 69.5958 53.0687 68.605 53.055C66.9933 53.0878 65.4134 53.5098 64 54.285C61.7902 55.5529 59.9641 57.3945 58.715 59.615C56.8993 62.6963 55.9443 66.2086 55.95 69.785V69.785Z" fill="white"/>
</g>
<defs>
<clipPath id="clip0_32467_575503">
<rect width="144" height="40" fill="white" transform="translate(56 50)"/>
</clipPath>
</defs>
</svg>
