<svg width="39" height="28" viewBox="0 0 39 28" fill="none" xmlns="http://www.w3.org/2000/svg">
<g clip-path="url(#clip0_3_5364)">
<path d="M26.1746 3.653C26.5255 3.54105 26.8355 3.327 27.0653 3.03794C27.2951 2.74888 27.4345 2.39779 27.4657 2.02909C27.497 1.6604 27.4187 1.29067 27.2409 0.966696C27.063 0.642719 26.7935 0.379052 26.4665 0.209057C26.1396 0.039062 25.7698 -0.0296209 25.4039 0.0116987C25.0381 0.0530183 24.6927 0.202484 24.4114 0.441182C24.1301 0.679881 23.9256 0.997085 23.8237 1.35266C23.7218 1.70823 23.7271 2.0862 23.839 2.43872C23.9129 2.6727 24.0319 2.88974 24.1894 3.07742C24.3468 3.26511 24.5394 3.41976 24.7564 3.53254C24.9733 3.64532 25.2102 3.71401 25.4536 3.73467C25.6969 3.75534 25.942 3.72759 26.1746 3.653Z" fill="url(#paint0_linear_3_5364)"/>
<path d="M30.1315 2.61474C30.2926 2.56407 30.4352 2.46644 30.541 2.33425C30.6469 2.20205 30.7113 2.04123 30.7261 1.87219C30.741 1.70314 30.7055 1.53347 30.6243 1.3847C30.5431 1.23592 30.4197 1.11474 30.2699 1.03651C30.1201 0.958282 29.9505 0.92653 29.7827 0.94528C29.6149 0.964031 29.4564 1.03244 29.3274 1.14183C29.1983 1.25123 29.1045 1.39668 29.0577 1.55975C29.011 1.72283 29.0135 1.89617 29.0649 2.05782C29.1334 2.27343 29.2841 2.45302 29.4839 2.55736C29.6838 2.66171 29.9166 2.68234 30.1315 2.61474Z" fill="url(#paint1_linear_3_5364)"/>
<path d="M29.0045 18.0055C25.3998 20.6615 21.5325 22.9373 17.4639 24.7968C19.887 25.3689 22.4362 24.9831 24.5842 23.719C26.7323 22.455 28.3148 20.4094 29.0045 18.0055Z" fill="url(#paint2_linear_3_5364)"/>
<path d="M38.7628 3.97047C37.5171 1.95016 31.7637 3.44876 24.6192 6.90507C23.1241 6.01669 21.4192 5.54785 19.6823 5.54747C17.9455 5.54708 16.2404 6.01516 14.7448 6.90288C13.2493 7.79059 12.0181 9.06542 11.1798 10.5944C10.3415 12.1233 9.92665 13.8504 9.97864 15.5954C3.17933 20.4212 -1.06375 24.8792 0.232529 26.9856C1.91938 29.7245 12.0807 26.7247 22.5509 20.429C33.021 14.1333 40.4471 6.70552 38.7628 3.97047ZM11.8199 21.0198C10.8921 21.2168 10.2628 21.1711 10.0552 20.832C9.84758 20.4929 10.1032 19.8734 10.7403 19.1026C11.0262 19.781 11.3884 20.4243 11.8199 21.0198ZM29.3255 14.2168C29.2918 13.9142 29.2451 13.6116 29.1828 13.3116C25.1071 16.7523 17.8731 20.8933 13.3134 22.6632C13.5963 22.9089 13.8931 23.1379 14.2023 23.3493C9.52059 25.1635 5.80822 25.5783 4.89343 24.0927C3.97864 22.6071 6.20398 19.8904 10.0954 16.8488C10.1683 17.3077 10.2745 17.7606 10.4133 18.2039C7.90122 20.2999 6.52838 22.0072 6.97215 22.7271C8.45269 25.1309 25.6832 15.6619 30.5401 10.3653C31.7079 9.09754 32.2918 8.16629 31.9869 7.67067C31.5574 6.97419 29.5215 7.34591 26.6356 8.49758C26.3443 8.19474 26.0331 7.91194 25.704 7.65111C29.9224 5.89817 33.1676 5.34256 34.0279 6.73812C34.9181 8.18455 32.9406 11.0865 29.3255 14.2168ZM27.2987 9.26057C28.1201 9.13015 28.6754 9.19536 28.8688 9.50969C29.0621 9.82402 28.8688 10.3288 28.3744 10.9705C28.0759 10.3645 27.7154 9.79146 27.2987 9.26057Z" fill="url(#paint3_linear_3_5364)"/>
</g>
<defs>
<linearGradient id="paint0_linear_3_5364" x1="23.751" y1="1.87095" x2="27.4724" y2="1.87095" gradientUnits="userSpaceOnUse">
<stop stop-color="#00D6EF"/>
<stop offset="1" stop-color="#7BA0D1"/>
</linearGradient>
<linearGradient id="paint1_linear_3_5364" x1="29.0244" y1="1.79707" x2="30.7294" y2="1.79707" gradientUnits="userSpaceOnUse">
<stop stop-color="#00D6EF"/>
<stop offset="1" stop-color="#7BA0D1"/>
</linearGradient>
<linearGradient id="paint2_linear_3_5364" x1="17.4639" y1="21.5309" x2="29.0045" y2="21.5309" gradientUnits="userSpaceOnUse">
<stop stop-color="#00D6EF"/>
<stop offset="1" stop-color="#7BA0D1"/>
</linearGradient>
<linearGradient id="paint3_linear_3_5364" x1="0" y1="15.5328" x2="39.0014" y2="15.5328" gradientUnits="userSpaceOnUse">
<stop stop-color="#00D6EF"/>
<stop offset="1" stop-color="#7BA0D1"/>
</linearGradient>
<clipPath id="clip0_3_5364">
<rect width="39" height="28" fill="white"/>
</clipPath>
</defs>
</svg>
