<svg width="264" height="280" viewBox="0 0 264 280" fill="none" xmlns="http://www.w3.org/2000/svg">
<path d="M108.079 135.504C103.921 131.499 98.4777 129.104 92.725 128.748C86.9723 128.392 81.286 130.098 76.6848 133.561C58.591 146.586 54.1705 168.294 65.1642 160.429C69.9442 157.438 75.5551 156.053 81.1829 156.473C86.8108 156.893 92.1629 159.097 96.4628 162.766L108.079 135.504Z" fill="#F9FBED"/>
<path d="M108.077 135.507C104.745 132.237 100.495 130.064 95.8987 129.282C94.1823 133.29 91.4296 136.765 87.9236 139.35C68.781 153.686 62.7472 153.149 60.5217 161.908C60.9701 162.645 63.0321 161.896 65.1627 160.431C69.9426 157.441 75.5535 156.055 81.1814 156.476C86.8093 156.896 92.1614 159.1 96.4613 162.769L108.077 135.507Z" fill="#B1B3A8"/>
<path d="M141.931 164.393C146.481 167.81 149.693 172.715 151.006 178.253C152.319 183.791 151.65 189.609 149.116 194.694C138.927 215.197 118.334 223.01 124.134 211.573C126.316 206.368 126.794 200.601 125.499 195.1C124.203 189.598 121.2 184.645 116.922 180.951L141.931 164.393Z" fill="#F9FBED"/>
<path d="M141.932 164.394C145.86 167.346 148.841 171.384 150.507 176.008C146.716 177.934 143.495 180.821 141.166 184.383C130.147 205.728 131.618 211.734 123.275 215.125C122.752 214.265 122.937 212.638 124.102 210.415C126.285 205.21 126.763 199.443 125.467 193.942C124.171 188.44 121.169 183.487 116.891 179.793L141.932 164.394Z" fill="#B1B3A8"/>
<path d="M153.578 168.086C137.096 179.745 120.012 190.53 102.398 200.394L77.9046 179.443C84.9222 160.607 92.9131 142.152 101.845 124.151L166.237 36.8496C169.602 32.4468 174.461 30.5012 176.962 32.6823L231.346 79.0438C233.847 81.2249 232.925 86.3305 229.016 90.3909L153.578 168.086Z" fill="#FF8500"/>
<path d="M231.345 79.041L227.531 75.8066L146.6 156.338C144.15 157.828 93.0569 191.935 91.9421 190.93L101.874 199.532C119.488 189.667 136.572 178.883 153.054 167.223L228.791 90.0196C232.455 86.1082 233.623 80.8536 231.345 79.041Z" fill="#CE6700"/>
<path d="M110.888 129.083L183.136 42.5566C183.739 41.536 184.459 40.5896 185.282 39.7369L176.492 32.4604C173.766 29.9108 169.355 32.5936 165.767 36.6278L101.844 124.149C92.9119 142.15 84.921 160.605 77.9034 179.441L83.0292 183.728C81.8665 182.921 108.96 131.434 110.888 129.083Z" fill="#FFAF45"/>
<path d="M197.896 99.3871C195.948 101.766 193.545 103.73 190.826 105.165C188.108 106.6 185.129 107.476 182.065 107.742C179.002 108.008 175.914 107.658 172.984 106.714C170.054 105.77 167.34 104.25 165.002 102.243C162.663 100.236 160.748 97.7828 159.367 95.0272C157.987 92.2716 157.169 89.2691 156.962 86.1957C156.755 83.1223 157.162 80.0399 158.161 77.1294C159.16 74.2188 160.73 71.5386 162.778 69.246C166.802 64.7431 172.431 62.0016 178.459 61.609C184.487 61.2163 190.434 63.2038 195.027 67.1455C199.619 71.0872 202.492 76.6695 203.028 82.6962C203.564 88.7229 201.722 94.7145 197.896 99.3871Z" fill="#B1B3A8"/>
<path d="M196.734 98.578C193.987 101.761 190.361 104.059 186.31 105.185C182.26 106.312 177.964 106.216 173.962 104.91C169.96 103.605 166.428 101.147 163.809 97.8447C161.19 94.5424 159.6 90.5425 159.238 86.3455C158.876 82.1485 159.759 77.9408 161.775 74.2491C163.791 70.5575 166.851 67.5459 170.572 65.5912C174.294 63.6365 178.511 62.8256 182.696 63.26C186.881 63.6944 190.848 65.3548 194.101 68.0333C196.307 69.8499 198.128 72.0892 199.458 74.6193C200.788 77.1494 201.6 79.9192 201.845 82.7656C202.091 85.612 201.765 88.4773 200.887 91.193C200.009 93.9086 198.597 96.4196 196.734 98.578Z" fill="#F9FBED"/>
<path d="M195.197 97.1591C193.595 99.2258 191.592 100.945 189.307 102.214C187.023 103.483 184.504 104.275 181.903 104.543C179.302 104.81 176.672 104.547 174.173 103.77C171.673 102.993 169.356 101.717 167.36 100.02C165.363 98.3234 163.73 96.2402 162.558 93.8963C161.386 91.5524 160.7 88.9963 160.54 86.3821C160.381 83.7678 160.752 81.1497 161.63 78.6853C162.509 76.2209 163.877 73.9614 165.653 72.0429C169.042 68.3813 173.714 66.174 178.697 65.8814C183.679 65.5887 188.587 67.2331 192.397 70.4719C196.206 73.7107 198.624 78.2938 199.146 83.2657C199.667 88.2376 198.253 93.2146 195.197 97.1591Z" fill="#B1B3A8"/>
<path d="M194.577 96.6941C193.004 98.5463 191.081 100.069 188.918 101.176C186.754 102.282 184.394 102.951 181.97 103.144C177.076 103.532 172.223 101.958 168.479 98.7672C164.735 95.5763 162.407 91.03 162.007 86.1286C161.607 81.2271 163.168 76.372 166.346 72.6312C167.908 70.7622 169.826 69.2239 171.99 68.1061C174.154 66.9883 176.519 66.3132 178.948 66.1203C181.377 65.9274 183.821 66.2204 186.138 66.9823C188.455 67.7442 190.598 68.9597 192.444 70.5581C196.155 73.7697 198.459 78.311 198.858 83.2013C199.258 88.0915 197.72 92.9381 194.577 96.6941Z" fill="#0096AF"/>
<path d="M198.245 89.7487L196.004 92.9632C193.264 96.1656 189.512 98.3327 185.368 99.1059C181.225 99.8792 176.938 99.2123 173.218 97.2156C169.498 95.2188 166.567 92.0119 164.91 88.1254C163.253 84.2389 162.97 79.9057 164.106 75.8427C162.89 78.1328 162.167 80.6546 161.987 83.2445C161.806 85.8344 162.171 88.4347 163.058 90.877C163.945 93.3192 165.334 95.5488 167.135 97.4214C168.937 99.294 171.11 100.768 173.514 101.747C175.918 102.726 178.5 103.189 181.092 103.106C183.684 103.023 186.228 102.396 188.56 101.265C190.891 100.133 192.958 98.5237 194.627 96.5399C196.295 94.5561 197.528 92.2424 198.245 89.7487Z" fill="#01708B"/>
<path d="M194.124 78.2869C192.747 81.8176 187.018 82.6092 181.91 80.835C176.803 79.0608 173.127 74.3964 174.504 70.8658C175.881 67.3351 181.487 66.618 186.717 68.3177C191.948 70.0174 195.379 74.8308 194.124 78.2869Z" fill="#09BACC"/>
<path d="M174.193 78.6272C172.968 79.3724 171.172 79.4551 169.513 78.1077C167.854 76.7604 167.346 74.545 168.15 73.3828C168.954 72.2207 171.294 72.4805 172.905 74.0252C174.516 75.5699 175.194 77.5134 174.193 78.6272Z" fill="#09BACC"/>
<path d="M165.78 130.197C163.436 132.98 160.318 135.001 156.821 136.004C153.324 137.007 149.606 136.946 146.138 135.83C142.671 134.713 139.61 132.591 137.345 129.733C135.08 126.874 133.712 123.409 133.416 119.776C133.119 116.142 133.907 112.506 135.68 109.327C137.452 106.148 140.129 103.57 143.371 101.921C146.613 100.272 150.273 99.6249 153.888 100.063C157.502 100.501 160.908 102.004 163.673 104.382C167.352 107.545 169.638 112.033 170.032 116.868C170.427 121.703 168.898 126.494 165.78 130.197Z" fill="#F9FBED"/>
<path d="M164.742 129.317C162.574 131.869 159.698 133.718 156.477 134.631C153.256 135.543 149.834 135.478 146.645 134.444C143.456 133.409 140.643 131.451 138.561 128.818C136.48 126.185 135.224 122.995 134.952 119.652C134.679 116.308 135.403 112.961 137.032 110.035C138.661 107.108 141.122 104.732 144.102 103.209C147.083 101.686 150.45 101.083 153.778 101.477C157.105 101.871 160.244 103.244 162.796 105.422C164.506 106.857 165.915 108.617 166.94 110.6C167.965 112.583 168.587 114.75 168.768 116.974C168.949 119.197 168.686 121.434 167.995 123.553C167.304 125.672 166.198 127.632 164.742 129.317Z" fill="#F9FBED"/>
<path d="M163.428 128.263C161.537 130.659 158.974 132.435 156.067 133.363C153.159 134.291 150.04 134.329 147.106 133.473C144.173 132.616 141.559 130.905 139.598 128.556C137.638 126.207 136.42 123.328 136.1 120.287C135.78 117.246 136.373 114.18 137.802 111.482C139.232 108.784 141.433 106.576 144.125 105.14C146.818 103.704 149.878 103.105 152.916 103.42C155.954 103.735 158.832 104.95 161.181 106.909C164.262 109.478 166.222 113.15 166.642 117.139C167.062 121.129 165.908 125.121 163.428 128.263Z" fill="#B1B3A8"/>
<path d="M163.006 127.848C161.139 129.948 158.696 131.452 155.979 132.172C153.262 132.892 150.392 132.797 147.726 131.898C145.059 130.999 142.713 129.336 140.978 127.115C139.244 124.895 138.199 122.215 137.971 119.408C137.744 116.601 138.345 113.791 139.7 111.328C141.055 108.864 143.103 106.855 145.592 105.549C148.08 104.244 150.898 103.701 153.696 103.986C156.494 104.272 159.149 105.374 161.33 107.156C162.833 108.383 164.073 109.901 164.975 111.62C165.877 113.338 166.423 115.221 166.579 117.154C166.736 119.087 166.5 121.032 165.886 122.869C165.272 124.707 164.292 126.401 163.006 127.848Z" fill="#0096AF"/>
<path d="M165.894 122.387L164.116 124.983C162.894 126.485 161.381 127.722 159.667 128.621C157.952 129.52 156.074 130.062 154.143 130.214C152.212 130.366 150.27 130.126 148.433 129.506C146.596 128.887 144.903 127.902 143.454 126.611C141.282 124.799 139.691 122.388 138.879 119.679C138.067 116.969 138.07 114.082 138.889 111.379C137.258 114.318 136.71 117.739 137.342 121.046C137.973 124.353 139.743 127.336 142.343 129.475C143.791 130.766 145.485 131.751 147.322 132.37C149.159 132.989 151.101 133.23 153.032 133.078C154.962 132.926 156.841 132.384 158.555 131.485C160.269 130.586 161.783 129.349 163.005 127.847C164.306 126.228 165.287 124.375 165.894 122.387Z" fill="#01708B"/>
<path d="M162.557 113.31C161.569 116.099 157.044 116.663 152.875 115.328C148.706 113.993 145.995 110.088 147.059 107.421C148.122 104.755 152.572 104.068 156.741 105.403C160.91 106.738 163.499 110.718 162.557 113.31Z" fill="#09BACC"/>
<path d="M146.931 113.559C146.342 113.968 145.621 114.142 144.91 114.045C144.198 113.948 143.548 113.588 143.088 113.035C142.266 111.684 141.369 110.21 142.077 109.442C142.786 108.675 144.16 108.175 145.846 109.843C147.532 111.511 148.034 112.888 146.931 113.559Z" fill="#09BACC"/>
<path d="M138.227 155.541C135.635 157.318 132.529 158.193 129.387 158.029C126.245 157.865 123.242 156.672 120.838 154.634C118.435 152.596 116.766 149.825 116.086 146.748C115.407 143.671 115.756 140.459 117.079 137.604C119.596 134.902 123.061 133.279 126.75 133.073C130.439 132.867 134.069 134.094 136.883 136.498C139.396 138.963 140.921 142.263 141.169 145.773C141.416 149.282 140.37 152.758 138.227 155.541Z" fill="#F9FBED"/>
<path d="M137.534 154.955C135.91 156.896 133.746 158.309 131.316 159.014C128.886 159.719 126.299 159.684 123.885 158.914C121.471 158.145 119.339 156.674 117.758 154.691C116.177 152.707 115.22 150.299 115.007 147.772C114.795 145.246 115.337 142.715 116.565 140.501C117.792 138.287 119.65 136.49 121.903 135.338C124.155 134.186 126.7 133.731 129.215 134.031C131.729 134.331 134.1 135.372 136.026 137.023C138.553 139.236 140.123 142.345 140.405 145.692C140.686 149.039 139.657 152.361 137.534 154.955Z" fill="#F9FBED"/>
<path d="M136.27 153.702C134.795 155.49 132.819 156.794 130.595 157.447C128.371 158.099 126.002 158.07 123.791 157.364C121.581 156.658 119.63 155.306 118.19 153.483C116.75 151.66 115.887 149.448 115.71 147.133C115.534 144.818 116.054 142.504 117.202 140.49C118.35 138.476 120.074 136.852 122.153 135.829C124.232 134.806 126.57 134.43 128.868 134.748C131.165 135.066 133.317 136.065 135.046 137.616C137.318 139.605 138.719 142.407 138.948 145.416C139.177 148.426 138.215 151.402 136.27 153.702Z" fill="#B1B3A8"/>
<path d="M136.147 153.776C135.207 154.928 134.046 155.881 132.733 156.579C131.42 157.276 129.98 157.704 128.499 157.837C127.017 157.971 125.523 157.807 124.104 157.355C122.685 156.904 121.369 156.174 120.234 155.208C118.601 153.782 117.422 151.908 116.842 149.819C116.263 147.73 116.308 145.518 116.972 143.458C117.637 141.397 118.891 139.579 120.58 138.228C122.269 136.878 124.318 136.055 126.473 135.861C128.628 135.667 130.793 136.111 132.701 137.137C134.61 138.164 136.176 139.729 137.206 141.636C138.236 143.544 138.685 145.712 138.497 147.87C138.309 150.028 137.492 152.081 136.147 153.776Z" fill="#0096AF"/>
<path d="M138.379 149.726L136.99 151.581C135.351 153.505 133.101 154.807 130.616 155.269C128.13 155.731 125.56 155.324 123.334 154.118C121.107 152.912 119.36 150.979 118.382 148.641C117.405 146.304 117.257 143.703 117.964 141.274C116.579 143.684 116.153 146.531 116.772 149.246C117.391 151.961 119.009 154.345 121.303 155.923C123.598 157.501 126.399 158.157 129.15 157.759C131.901 157.362 134.398 155.94 136.144 153.778C137.19 152.618 137.955 151.231 138.379 149.726Z" fill="#01708B"/>
<path d="M135.87 142.836C135.147 144.959 131.705 145.37 128.596 144.399C125.488 143.429 123.375 140.506 124.711 138.011C126.046 135.515 128.876 135.477 131.984 136.448C135.093 137.418 136.668 140.836 135.87 142.836Z" fill="#09BACC"/>
<path d="M124.034 142.97C123.298 143.417 122.441 143.938 121.177 142.688C119.912 141.437 119.906 140.599 119.757 140.353C119.607 140.108 121.35 139.385 122.614 140.635C123.083 140.801 123.48 141.124 123.739 141.55C123.998 141.975 124.102 142.477 124.034 142.97Z" fill="#09BACC"/>
<path d="M233.212 85.1458L236.109 23.1298C236.176 22.5173 236.09 21.8974 235.859 21.3255C235.628 20.7536 235.26 20.2474 234.787 19.852C234.314 19.4567 233.75 19.1844 233.147 19.0595C232.544 18.9346 231.92 18.9609 231.33 19.1361L170.582 31.8502L233.212 85.1458Z" fill="#B1B3A8"/>
<path d="M236.002 21.8489C235.882 21.3582 235.665 20.8965 235.363 20.4918C235.06 20.0871 234.679 19.7477 234.243 19.4942C233.806 19.2407 233.323 19.0782 232.822 19.0167C232.322 18.9551 231.814 18.9958 231.33 19.1361L170.582 31.8502L182.22 41.6019L236.002 21.8489Z" fill="#F9FBED"/>
<path d="M233.925 51.5522C227.283 54.2902 220.14 55.6126 212.953 55.4352C205.765 55.2579 198.689 53.5847 192.176 50.5221L231.855 85.1261L233.925 51.5522Z" fill="#9FA098"/>
<path d="M86.7954 156.532C83.2186 163.783 80.148 171.274 77.6054 178.952L102.098 199.903C109.403 196.207 116.408 191.946 123.049 187.16L86.7954 156.532Z" fill="#B1B3A8"/>
<path d="M79.4657 174.283C78.6924 175.915 78.1659 177.653 77.9033 179.441L102.396 200.392C104.087 199.698 105.658 198.743 107.052 197.561L79.4657 174.283Z" fill="#F9FBED"/>
<path d="M119.895 190.254L123.57 188.019L86.7935 156.53L85.0755 160.605L119.895 190.254Z" fill="#F9FBED"/>
<path d="M76.5948 182.258C66.9147 186.485 58.6185 193.348 52.6477 202.066C46.6769 210.785 43.2707 221.011 42.8156 231.584C46.8131 224.461 52.7547 218.629 59.9466 214.768C56.5047 222.079 37.1398 226.116 31.0523 279.301C40.1135 259.746 55.5623 243.879 74.8553 234.312C73.1728 236.784 71.0929 238.959 68.6998 240.749C68.6998 240.749 89.2482 237.002 100.517 202.546C97.5303 203.663 94.2984 203.961 91.1543 203.41C88.0103 202.859 85.0679 201.479 82.6305 199.412C80.193 197.344 78.3488 194.665 77.2878 191.65C76.2269 188.634 75.9877 185.392 76.5948 182.258Z" fill="#FFAF45"/>
<path d="M34.3797 269.871C35.5796 251.416 43.5746 234.079 56.8177 221.215C58.8656 219.767 60.5945 217.914 61.8975 215.769L64.467 210.335L59.3212 213.465C54.1499 216.288 49.553 220.055 45.7667 224.571C47.2356 216.25 50.6097 208.388 55.6248 201.6C60.6398 194.812 67.1595 189.283 74.6728 185.446C74.747 188.309 75.4266 191.125 76.6667 193.709C77.9068 196.293 79.6793 198.585 81.8672 200.435C84.0551 202.285 86.6088 203.651 89.3598 204.442C92.1107 205.232 94.9965 205.431 97.8268 205.024C94.2467 216.434 87.3333 226.501 77.9775 233.927L80.8998 229.625L74.7886 231.996C57.5077 239.807 43.3019 253.122 34.3797 269.871Z" fill="#FF8500"/>
</svg>
